<svg width="46" height="51" viewBox="0 0 46 51" fill="none" xmlns="http://www.w3.org/2000/svg">
<path d="M45.0438 0.209961L41.0273 45.2047L22.973 50.21L4.96852 45.2118L0.956299 0.209961H45.0438Z" fill="#264DE4"/>
<path d="M37.5899 42.3388L41.0222 3.88867H23.0012V46.3833L37.5899 42.3388Z" fill="#2965F1"/>
<path d="M10.155 20.582L10.6496 26.1013H23.0008V20.582H10.155Z" fill="#EBEBEB"/>
<path d="M23.0005 9.41016H22.9814H9.16071L9.66243 14.9295H23.0005V9.41016Z" fill="#EBEBEB"/>
<path d="M23.001 40.657V34.9146L22.9769 34.921L16.83 33.2613L16.437 28.8594H13.4501H10.8965L11.6698 37.5254L22.9756 40.664L23.001 40.657Z" fill="#EBEBEB"/>
<path d="M29.7787 26.1006L29.138 33.2587L22.9823 34.9201V40.6623L34.2971 37.5264L34.3802 36.5939L35.6771 22.0634L35.8118 20.5813L36.8082 9.41016H22.9823V14.9295H30.7595L30.2573 20.5813H22.9823V26.1006H29.7787Z" fill="white"/>
</svg>
