<svg width="70" height="51" viewBox="0 0 70 51" fill="none" xmlns="http://www.w3.org/2000/svg">
<path d="M69.1504 19.0865C68.9615 18.9364 67.1974 17.6044 63.4772 17.6044C62.4949 17.6087 61.5146 17.693 60.5459 17.8564C59.8259 12.9212 55.7457 10.5151 55.5627 10.4071L54.5638 9.83105L53.9067 10.7791C53.0839 12.0527 52.4833 13.4567 52.1307 14.9313C51.4646 17.7485 51.8696 20.3945 53.3007 22.6566C51.5726 23.6196 48.8005 23.8567 48.2395 23.8777H2.34343C1.14464 23.8793 0.171875 24.8481 0.165341 26.0468C0.111808 30.0675 0.793016 34.0642 2.17542 37.8402C3.75645 41.9864 6.1086 45.0405 9.16877 46.9096C12.5979 49.0097 18.1692 50.2097 24.4844 50.2097C27.3374 50.2187 30.185 49.9605 32.9899 49.4387C36.8889 48.7228 40.6408 47.36 44.0904 45.4065C46.9327 43.7605 49.4908 41.6666 51.6657 39.2052C55.3019 35.089 57.4681 30.5048 59.0791 26.4308H59.7211C63.7022 26.4308 66.1504 24.8376 67.5005 23.5026C68.3977 22.6512 69.0981 21.614 69.5526 20.4635L69.8376 19.6295L69.1504 19.0865Z" fill="#2496ED"/>
<path d="M6.59662 22.5319H12.7469C13.0435 22.5319 13.2839 22.2914 13.2839 21.9949V16.5166C13.2855 16.2199 13.0464 15.9782 12.7499 15.9766C12.7489 15.9766 12.7479 15.9766 12.7469 15.9766H6.59662C6.29999 15.9766 6.05963 16.217 6.05963 16.5135V16.5166V21.9948C6.05963 22.2914 6.29999 22.5319 6.59662 22.5319Z" fill="#2496ED"/>
<path d="M15.0723 22.5319H21.2226C21.5192 22.5319 21.7596 22.2914 21.7596 21.9949V16.5166C21.7613 16.2199 21.5222 15.9782 21.2255 15.9766C21.2246 15.9766 21.2235 15.9766 21.2225 15.9766H15.0722C14.774 15.9766 14.5322 16.2183 14.5322 16.5166V21.9948C14.534 22.2919 14.7752 22.5319 15.0723 22.5319Z" fill="#2496ED"/>
<path d="M23.678 22.5319H29.8283C30.1249 22.5319 30.3653 22.2914 30.3653 21.9949V16.5166C30.3669 16.2199 30.1278 15.9782 29.8312 15.9766C29.8302 15.9766 29.8292 15.9766 29.8282 15.9766H23.6779C23.3813 15.9766 23.1409 16.217 23.1409 16.5135V16.5166V21.9948C23.141 22.2914 23.3815 22.5319 23.678 22.5319Z" fill="#2496ED"/>
<path d="M32.1798 22.5319H38.3301C38.6272 22.5319 38.8684 22.292 38.8701 21.9949V16.5166C38.8701 16.2183 38.6283 15.9766 38.3301 15.9766H32.1798C31.8832 15.9766 31.6428 16.217 31.6428 16.5135V16.5166V21.9948C31.6428 22.2914 31.8833 22.5319 32.1798 22.5319Z" fill="#2496ED"/>
<path d="M15.0722 14.647H21.2225C21.5195 14.6453 21.7595 14.404 21.7595 14.107V8.62878C21.7595 8.33216 21.519 8.0918 21.2225 8.0918H15.0722C14.7752 8.0918 14.5339 8.33167 14.5322 8.62878V14.107C14.5339 14.4046 14.7746 14.6453 15.0722 14.647Z" fill="#2496ED"/>
<path d="M23.6779 14.647H29.8282C30.1252 14.6453 30.3652 14.404 30.3652 14.107V8.62878C30.3652 8.33216 30.1247 8.0918 29.8282 8.0918H23.6779C23.3813 8.0918 23.1409 8.33226 23.1409 8.62878V14.107C23.1409 14.404 23.3809 14.6453 23.6779 14.647Z" fill="#2496ED"/>
<path d="M32.1798 14.647H38.3301C38.6277 14.6453 38.8684 14.4046 38.8701 14.107V8.62878C38.8684 8.33167 38.6272 8.0918 38.3301 8.0918H32.1798C31.8832 8.0918 31.6428 8.33226 31.6428 8.62878V14.107C31.6428 14.404 31.8828 14.6453 32.1798 14.647Z" fill="#2496ED"/>
<path d="M32.1798 6.76526H38.3301C38.6272 6.76526 38.8684 6.52529 38.8701 6.22827V0.746948C38.8684 0.449835 38.6272 0.209961 38.3301 0.209961H32.1798C31.8832 0.209961 31.6428 0.450323 31.6428 0.746948V6.22818C31.6428 6.5248 31.8833 6.76526 32.1798 6.76526Z" fill="#2496ED"/>
<path d="M40.7565 22.5319H46.9068C47.2039 22.5319 47.4451 22.292 47.4468 21.9949V16.5166C47.4468 16.2183 47.2051 15.9766 46.9068 15.9766H40.7565C40.46 15.9766 40.2195 16.217 40.2195 16.5135V16.5166V21.9948C40.2195 22.2914 40.46 22.5319 40.7565 22.5319Z" fill="#2496ED"/>
</svg>
