<svg width="34" height="51" viewBox="0 0 34 51" fill="none" xmlns="http://www.w3.org/2000/svg">
<path d="M8.66647 50.2103C13.2664 50.2103 16.9997 46.4771 16.9997 41.8771V33.5439H8.66647C4.06653 33.5439 0.333252 37.2772 0.333252 41.8771C0.333252 46.4771 4.06653 50.2103 8.66647 50.2103Z" fill="#0ACF83"/>
<path d="M0.333252 25.2092C0.333252 20.6092 4.06653 16.876 8.66647 16.876H16.9997V33.5424H8.66647C4.06653 33.5424 0.333252 29.8091 0.333252 25.2092Z" fill="#A259FF"/>
<path d="M0.333618 8.54317C0.333618 3.94324 4.0669 0.209961 8.66683 0.209961H17V16.8764H8.66683C4.0669 16.8764 0.333618 13.1431 0.333618 8.54317Z" fill="#F24E1E"/>
<path d="M17.0001 0.209961H25.3333C29.9332 0.209961 33.6665 3.94324 33.6665 8.54317C33.6665 13.1431 29.9332 16.8764 25.3333 16.8764H17.0001V0.209961Z" fill="#FF7262"/>
<path d="M33.6665 25.2092C33.6665 29.8091 29.9332 33.5424 25.3333 33.5424C20.7333 33.5424 17.0001 29.8091 17.0001 25.2092C17.0001 20.6092 20.7333 16.876 25.3333 16.876C29.9332 16.876 33.6665 20.6092 33.6665 25.2092Z" fill="#1ABCFE"/>
</svg>
