<svg width="54" height="51" viewBox="0 0 54 51" fill="none" xmlns="http://www.w3.org/2000/svg">
<path d="M3.96947 34.6575C4.01947 34.7705 4.07599 34.8749 4.13686 34.9792C4.16512 35.0401 4.20426 35.1031 4.23904 35.1597C4.29556 35.2727 4.35643 35.3814 4.41512 35.4901L4.75643 36.064C4.81947 36.1705 4.88034 36.2749 4.95208 36.3792C5.07165 36.5836 5.21295 36.7836 5.33687 36.9879C5.39339 37.0727 5.44556 37.1575 5.50861 37.2423C5.74774 37.614 5.96513 37.9227 6.19774 38.2227C6.36295 38.4466 6.52817 38.6662 6.70643 38.8858C6.76513 38.9684 6.83035 39.051 6.89122 39.1336L7.37165 39.7162C7.43035 39.7836 7.48904 39.8619 7.55209 39.9314C7.76513 40.188 7.99122 40.4358 8.2173 40.688C8.2173 40.6923 8.22383 40.6967 8.22817 40.7032C8.50861 41.0554 8.81078 41.3684 9.14122 41.6467L9.14992 41.6554C9.32383 41.8336 9.49774 42.0097 9.68252 42.1836L9.90209 42.3945C10.1434 42.6206 10.3847 42.8445 10.639 43.0619C10.6434 43.0619 10.6456 43.0663 10.6499 43.0684L10.7738 43.1771C10.9956 43.3706 11.2195 43.5619 11.4477 43.7402L11.7195 43.9684C11.9043 44.1163 12.0956 44.2554 12.2847 44.401L12.5804 44.6271C12.7825 44.7793 12.9977 44.9271 13.2043 45.075C13.2804 45.1293 13.3564 45.1837 13.4347 45.2337L13.4977 45.2837L14.1086 45.6837L14.3695 45.8576C14.6891 46.0619 15.0064 46.2532 15.3238 46.4445C15.4151 46.4902 15.5064 46.5402 15.5912 46.5924C15.826 46.7272 16.0695 46.8641 16.3064 46.988C16.4369 47.0619 16.5717 47.125 16.7064 47.1924C16.8695 47.2837 17.0391 47.3728 17.213 47.4641C17.2608 47.4793 17.2999 47.4946 17.3391 47.5163L17.3478 47.5076C17.4195 47.5402 17.4869 47.575 17.5565 47.6098C17.8173 47.7402 18.0891 47.8641 18.3717 47.9859C18.4238 48.0076 18.4804 48.0293 18.5369 48.0598C18.8499 48.1967 19.163 48.3272 19.4869 48.4533C19.5608 48.475 19.6391 48.512 19.7152 48.5402C20.0086 48.6511 20.3108 48.7641 20.6108 48.8707L20.7195 48.9098C21.0521 49.0228 21.3804 49.1315 21.7195 49.2337C21.7978 49.2554 21.8782 49.2837 21.9608 49.3054C22.3065 49.4098 22.6412 49.5337 22.9912 49.5989C45.3239 53.649 51.813 36.2379 51.813 36.2379C46.3608 43.3032 36.6847 45.1663 27.5217 43.0923C27.1826 43.0141 26.8434 42.9054 26.4999 42.8054C26.0151 42.6682 25.5345 42.5167 25.0586 42.351L25.2652 42.4141L25.1304 42.3619C24.8347 42.2619 24.5499 42.151 24.2608 42.0402C24.19 42.0101 24.1183 41.9826 24.0456 41.9576L24.0217 41.951C23.7021 41.8228 23.3912 41.6923 23.0825 41.5554C23.0152 41.5336 22.9586 41.5032 22.8912 41.4771C22.5256 41.3178 22.1632 41.1511 21.8043 40.9771L22.1043 41.1097C22.026 41.0751 21.9491 41.0374 21.8738 40.9967C21.6695 40.901 21.4652 40.7923 21.2652 40.6901C21.1128 40.618 20.9628 40.5411 20.8152 40.4597L20.8586 40.4814C20.613 40.351 20.3673 40.2097 20.1195 40.0771C20.0456 40.0249 19.9608 39.9814 19.876 39.9336C19.5077 39.7195 19.1438 39.4977 18.7847 39.2684L18.9217 39.351C18.8296 39.2942 18.7397 39.234 18.6521 39.1706L18.6651 39.1793C18.4315 39.0357 18.2024 38.8849 17.9782 38.7271C17.9043 38.6793 17.8369 38.6271 17.7608 38.5749C17.5266 38.415 17.2961 38.2498 17.0695 38.0793L17.1217 38.1162C17.0304 38.0423 16.9325 37.9727 16.8347 37.901C16.6434 37.751 16.4499 37.6075 16.2586 37.451L16.0021 37.2466C15.7287 37.0291 15.4605 36.8051 15.1978 36.5749L15.1956 36.5727L14.4412 35.8879L14.2238 35.6836C14.0456 35.5031 13.863 35.3314 13.6804 35.1531L13.4695 34.9357C13.2444 34.7128 13.0248 34.4845 12.8108 34.251L12.7977 34.2357L12.7608 34.2053C12.5306 33.9525 12.3038 33.6967 12.0804 33.4379C12.0217 33.3705 11.9673 33.2988 11.9064 33.227L11.413 32.6292C11.1905 32.3498 10.9731 32.0664 10.7608 31.7792L10.6738 31.6575C5.59121 24.753 3.75208 15.2247 7.81948 7.40723L4.22817 11.9486C-0.391405 18.5552 0.180336 27.1465 3.71295 34.1618C3.79339 34.3336 3.88252 34.4944 3.96947 34.6575Z" fill="#1266A9"/>
<path d="M19.5274 25.141L19.5035 25.1062L19.4839 25.0801L19.5274 25.141Z" fill="black"/>
<path d="M21.9585 27.9932L22.1542 28.1889C22.402 28.428 22.6564 28.6606 22.915 28.8932L22.9477 28.9215C23.2085 29.1519 23.502 29.3932 23.8042 29.628L23.8498 29.6628C23.9237 29.7128 23.9868 29.7715 24.0585 29.8215C24.3629 30.0563 24.6694 30.2802 24.989 30.5041L25.0216 30.5237C25.1564 30.6215 25.2998 30.7106 25.452 30.8063C25.5129 30.8454 25.5824 30.8976 25.6477 30.9367C25.8781 31.0846 26.1042 31.2215 26.3368 31.3628C26.3737 31.378 26.4064 31.3976 26.4411 31.4128C26.6368 31.5324 26.8498 31.6476 27.0542 31.752C27.1259 31.7954 27.1955 31.828 27.2694 31.8694C27.4151 31.9411 27.5585 32.0172 27.6977 32.0911L27.7672 32.1215C28.0607 32.265 28.3607 32.3998 28.6542 32.5324C28.7281 32.5607 28.7911 32.5846 28.8542 32.615C29.0955 32.7194 29.3411 32.8194 29.5824 32.9107C29.6911 32.9476 29.7933 32.9911 29.8955 33.0237C30.1172 33.1063 30.3498 33.1824 30.5694 33.2585L30.8737 33.3563C31.1911 33.4542 31.5129 33.5824 31.8498 33.6346C49.0955 36.4737 53.0868 23.2627 53.0868 23.2627C49.4933 28.4084 42.539 30.8606 35.1281 28.9454C34.7582 28.8521 34.3913 28.747 34.0281 28.6302L34.152 28.665C34.0477 28.6367 33.9564 28.6041 33.8564 28.5737C33.6303 28.4954 33.3977 28.4193 33.1781 28.3389L32.8651 28.2215C32.6216 28.1237 32.3738 28.0324 32.1368 27.928C32.0629 27.8954 31.9955 27.8737 31.939 27.8411C31.6346 27.7041 31.3281 27.5693 31.0303 27.4258L30.5824 27.1932L30.3238 27.0628C30.1237 26.9584 29.939 26.8497 29.7477 26.7389C29.6989 26.7159 29.6517 26.6898 29.6064 26.6606L29.6129 26.6628C29.3824 26.5193 29.1433 26.3802 28.9216 26.2345C28.8477 26.1932 28.7803 26.1432 28.7107 26.0997L28.2585 25.8062C27.9455 25.5889 27.639 25.3562 27.3281 25.1302C27.2585 25.0671 27.1911 25.0149 27.1237 24.9584C23.865 22.4084 21.2955 18.9236 20.0759 14.9779C18.7911 10.8757 19.0737 6.27562 21.2933 2.54297L18.565 6.38649C15.215 11.1713 15.4042 17.567 18.0129 22.628C18.489 23.5627 18.9716 24.3519 19.5042 25.1041C19.9998 25.8128 20.5477 26.6432 21.2085 27.2128C21.4433 27.4802 21.6955 27.7345 21.9585 27.9932Z" fill="#1266A9"/>
<path d="M6.20821 38.2365L6.19951 38.2235L6.1843 38.2039L6.20821 38.2365ZM15.2473 36.6191L15.2691 36.6344L15.2734 36.6409L15.2473 36.6191Z" fill="black"/>
<path d="M30.6222 2.2252C28.6461 5.11001 28.457 8.69265 29.8178 11.8731C31.2635 15.2514 34.2178 17.9036 37.6613 19.1601C37.8026 19.2145 37.9396 19.2601 38.0852 19.3123L38.2766 19.371C38.4766 19.4341 38.6787 19.508 38.8852 19.5536C48.4092 21.3819 50.9874 14.6884 51.6809 13.7036C49.4135 16.9427 45.6113 17.721 40.9461 16.5927C40.5405 16.4938 40.1412 16.3704 39.7505 16.2232L39.8222 16.2471C39.336 16.0788 38.8599 15.8828 38.3961 15.6601L38.4787 15.6971C37.5874 15.2623 36.8222 14.7927 36.1113 14.2536C31.9418 11.1014 29.3635 5.09914 32.0852 0.209961L30.6222 2.2252Z" fill="#1266A9"/>
</svg>
