<svg width="50" height="51" viewBox="0 0 50 51" fill="none" xmlns="http://www.w3.org/2000/svg">
<path d="M50 0.209961H0V50.21H50V0.209961Z" fill="#F7DF1E"/>
<path d="M33.5885 39.2715C34.5957 40.9159 35.906 42.1246 38.2235 42.1246C40.1703 42.1246 41.4139 41.1516 41.4139 39.8072C41.4139 38.1961 40.1362 37.6254 37.9933 36.6881L36.8187 36.1841C33.4282 34.7397 31.1758 32.9302 31.1758 29.1048C31.1758 25.581 33.8608 22.8984 38.0568 22.8984C41.0441 22.8984 43.1917 23.9381 44.7393 26.6603L41.0806 29.0095C40.275 27.5651 39.406 26.9961 38.0568 26.9961C36.6806 26.9961 35.8084 27.8691 35.8084 29.0095C35.8084 30.4191 36.6814 30.9897 38.6973 31.8627L39.8719 32.3659C43.8639 34.0778 46.1179 35.823 46.1179 39.7468C46.1179 43.977 42.7949 46.2945 38.3322 46.2945C33.9687 46.2945 31.1497 44.2151 29.7703 41.4897L33.5885 39.2715ZM16.9909 39.6786C17.729 40.9881 18.4005 42.0953 20.0147 42.0953C21.5584 42.0953 22.5322 41.4913 22.5322 39.1429V23.1667H27.2306V39.2064C27.2306 44.0714 24.3782 46.2857 20.2147 46.2857C16.4528 46.2857 14.2743 44.3389 13.1663 41.9941L16.9909 39.6786Z" fill="black"/>
</svg>
