<svg width="50" height="51" viewBox="0 0 50 51" fill="none" xmlns="http://www.w3.org/2000/svg">
<path d="M49.4724 11.5213C49.4905 11.5879 49.4998 11.6567 49.5 11.7257V22.4581C49.5 22.5958 49.4633 22.7311 49.3937 22.8503C49.324 22.9695 49.2238 23.0684 49.1033 23.1369L40.0156 28.3231V38.6026C40.0156 38.8823 39.8656 39.1406 39.6209 39.2814L20.651 50.1057C20.6076 50.1302 20.5603 50.1459 20.5129 50.1625C20.4951 50.1684 20.4783 50.1791 20.4596 50.184C20.327 50.2186 20.1876 50.2186 20.055 50.184C20.0333 50.1781 20.0136 50.1664 19.9928 50.1586C19.9494 50.1429 19.904 50.1292 19.8626 50.1057L0.896705 39.2814C0.776221 39.2128 0.67611 39.1139 0.606464 38.9948C0.536817 38.8756 0.500095 38.7403 0.5 38.6026V6.4055C0.5 6.33507 0.509868 6.2666 0.527631 6.20008C0.533552 6.17759 0.547368 6.15704 0.555262 6.13455C0.570065 6.09346 0.58388 6.0514 0.605591 6.01326C0.620393 5.98782 0.642103 5.96728 0.659866 5.94381C0.682563 5.9125 0.703287 5.88023 0.729931 5.85284C0.752628 5.83034 0.782233 5.81371 0.807891 5.79415C0.836509 5.77067 0.862166 5.74524 0.894732 5.72665H0.895718L10.3791 0.314498C10.4992 0.246008 10.6353 0.209961 10.7739 0.209961C10.9124 0.209961 11.0485 0.246008 11.1686 0.314498L20.652 5.72665H20.654C20.6856 5.74622 20.7122 5.77067 20.7408 5.79317C20.7665 5.81273 20.7951 5.83034 20.8178 5.85186C20.8455 5.88023 20.8652 5.9125 20.8889 5.94381C20.9056 5.96728 20.9283 5.98782 20.9422 6.01326C20.9649 6.05238 20.9777 6.09346 20.9935 6.13455C21.0014 6.15704 21.0152 6.17759 21.0211 6.20106C21.0393 6.26772 21.0486 6.33645 21.0487 6.4055V26.5155L28.9513 22.0052V11.7247C28.9513 11.6563 28.9611 11.5868 28.9789 11.5213C28.9858 11.4978 28.9986 11.4773 29.0065 11.4548C29.0223 11.4137 29.0361 11.3716 29.0578 11.3335C29.0726 11.308 29.0944 11.2875 29.1111 11.264C29.1348 11.2327 29.1546 11.2004 29.1822 11.173C29.2049 11.1505 29.2335 11.1339 29.2592 11.1144C29.2888 11.0909 29.3144 11.0654 29.346 11.0469H29.347L38.8314 5.63471C38.9514 5.56612 39.0876 5.53002 39.2261 5.53002C39.3647 5.53002 39.5008 5.56612 39.6209 5.63471L49.1043 11.0469C49.1378 11.0664 49.1635 11.0909 49.1931 11.1134C49.2178 11.1329 49.2464 11.1505 49.2691 11.1721C49.2967 11.2004 49.3165 11.2327 49.3401 11.264C49.3579 11.2875 49.3796 11.308 49.3934 11.3335C49.4161 11.3716 49.4289 11.4137 49.4447 11.4548C49.4536 11.4773 49.4664 11.4978 49.4724 11.5213ZM47.9191 22.0052V13.0805L44.6004 14.9742L40.0156 17.5907V26.5155L47.9201 22.0052H47.9191ZM38.4357 38.1497V29.2191L33.9259 31.7721L21.0478 39.0574V48.0722L38.4357 38.1497ZM2.0809 7.76025V38.1497L19.4669 48.0712V39.0584L10.3841 33.9632L10.3811 33.9612L10.3772 33.9593C10.3466 33.9417 10.3209 33.9162 10.2923 33.8947C10.2676 33.8751 10.239 33.8595 10.2173 33.838L10.2153 33.835C10.1897 33.8106 10.1719 33.7803 10.1502 33.7529C10.1305 33.7265 10.1068 33.704 10.091 33.6766L10.09 33.6736C10.0722 33.6443 10.0614 33.6091 10.0486 33.5758C10.0357 33.5465 10.019 33.5191 10.0111 33.4878V33.4868C10.0012 33.4496 9.99921 33.4105 9.99527 33.3724C9.99132 33.343 9.98343 33.3137 9.98343 33.2843V12.2705L5.39961 9.65299L2.0809 7.76123V7.76025ZM10.7749 1.89716L2.87332 6.4055L10.7729 10.9138L18.6734 6.40452L10.7729 1.89716H10.7749ZM14.884 30.0329L19.4678 27.4173V7.76025L16.1491 9.65396L11.5643 12.2705V31.9276L14.884 30.0329ZM39.2261 7.21737L31.3256 11.7257L39.2261 16.234L47.1257 11.7247L39.2261 7.21737ZM38.4357 17.5907L33.8509 14.9742L30.5322 13.0805V22.0052L35.116 24.6208L38.4357 26.5155V17.5907ZM20.2563 37.7027L31.8446 31.1451L37.6373 27.8683L29.7427 23.3629L20.653 28.55L12.3686 33.2775L20.2563 37.7027Z" fill="#FF2D20"/>
</svg>
