<svg width="46" height="51" viewBox="0 0 46 51" fill="none" xmlns="http://www.w3.org/2000/svg">
<path d="M8.54207 34.741C8.38692 34.9535 8.16527 35.2813 8.02633 35.5024C7.12131 36.9435 5.36837 37.3504 4.06037 36.1645C3.56702 35.7171 3.27382 35.0371 2.96984 34.4195C1.56522 31.5656 0.744684 28.4193 0.548996 25.2452C-0.333272 12.6835 9.00633 0.887089 21.8613 0.238642C27.8228 -0.0620744 33.434 2.01047 37.8571 6.0535C41.2086 9.11689 43.5572 13.1186 44.7132 17.5063C44.8932 18.1968 45.2339 19.7006 45.2675 20.4169C45.3798 21.0112 45.4172 21.7299 45.4557 22.3401C45.7073 26.3475 45.0692 30.4486 43.3856 34.1082C43.3115 34.269 43.2012 34.4395 43.1107 34.5943C42.3427 35.9083 41.5979 37.0816 39.8691 36.8328C39.5386 36.8238 39.3731 36.7722 39.0651 36.6572C39.1164 38.3727 39.039 40.125 39.071 41.844C39.0785 42.245 39.05 42.7424 38.9349 43.1285C38.121 45.8596 34.4528 46.3203 32.9885 43.8734C32.4585 42.9888 32.5298 42.2209 32.5294 41.2294L32.5296 39.4162L32.5234 33.1728L32.4903 33.2029C31.2004 34.399 30.7541 36.9584 28.4804 36.8547C27.9241 36.8294 27.8156 36.6603 27.4391 36.5758C27.3764 36.493 26.7723 36.0635 26.5666 35.8245C25.7966 34.9303 25.2539 33.8015 24.3535 33.0473C22.9876 32.014 21.5024 32.4034 20.5698 33.7603C20.3381 34.0974 20.1633 34.2188 20.1782 34.6519L20.1567 34.4929L20.1187 34.4759C19.475 35.4316 18.9068 36.5828 17.6604 36.8209C16.5548 37.0322 15.8347 36.5073 15.0883 35.7895C15.0683 36.8875 15.1032 38.012 15.0878 39.1122C15.0579 39.8666 15.1639 40.6887 14.97 41.4242C14.3313 43.8463 11.2809 44.6592 9.50853 42.8934C8.30882 41.6981 8.54534 40.2172 8.54475 38.6785L8.54207 34.741Z" fill="#FC70A8"/>
<path d="M32.5571 33.1296C33.533 32.1107 35.0559 32.3378 36.0164 33.2621C37.1778 34.4481 37.5794 35.8432 39.0651 36.657C39.1164 38.3725 39.039 40.1249 39.071 41.8438C39.0785 42.2449 39.05 42.7423 38.935 43.1284C38.121 45.8595 34.4528 46.3202 32.9885 43.8732C32.4585 42.9886 32.5298 42.2208 32.5294 41.2292L32.5296 39.4161L32.5234 33.1726L32.5571 33.1296Z" fill="#4E56A6"/>
<path d="M32.5571 33.1296C33.533 32.1107 35.0559 32.3378 36.0164 33.2621C34.4933 34.0853 34.0449 36.3658 32.5579 37.3027C32.52 35.9848 32.5509 34.4617 32.5571 33.1296Z" fill="#373C75"/>
<path d="M8.57871 34.6681C8.65793 34.472 8.98251 33.9913 9.10352 33.8217C9.564 33.1765 10.1586 32.6105 10.9741 32.494C11.6672 32.3949 12.2464 32.5487 12.81 32.9539C13.5917 33.5425 14.0596 34.3789 14.6343 35.1545C14.7172 35.2662 15.0426 35.6959 15.0883 35.7893C15.0682 36.8872 15.1032 38.0117 15.0877 39.1119C15.0579 39.8663 15.1639 40.6885 14.97 41.4239C14.3312 43.846 11.2809 44.6589 9.50851 42.8932C8.3088 41.6978 8.54532 40.2169 8.54472 38.6782L8.54205 34.7407L8.57871 34.6681Z" fill="#4E56A6"/>
<path d="M8.57874 34.6681C8.65796 34.472 8.98254 33.9913 9.10355 33.8217C9.56403 33.1765 10.1586 32.6105 10.9742 32.494C11.6673 32.3949 12.2465 32.5487 12.81 32.9539C12.6775 33.0094 12.588 32.9963 12.4533 33.0222C12.1872 33.0734 11.9166 33.1398 11.6729 33.2614C10.2924 33.9634 9.67529 36.1554 8.57302 37.028C8.57116 36.3468 8.53702 35.3242 8.57874 34.6681Z" fill="#373C75"/>
<path d="M22.0848 6.58853L22.1243 6.58719C24.9101 6.51281 27.624 7.73811 29.6064 9.64694C32.0003 11.9519 33.4515 15.1977 33.5047 18.5233C33.5504 21.3756 32.8784 24.3954 30.8399 26.5017C28.6544 28.7598 25.5932 29.4411 22.5719 29.4896C16.0202 29.628 11.486 26.5084 11.1224 19.5964C10.7801 13.0888 15.3483 6.9062 22.0848 6.58853Z" fill="#F1F4F6"/>
<path d="M19.0434 10.0701C19.9548 9.99666 20.9696 10.3108 21.6885 10.867C24.8095 13.2813 23.7138 18.5193 19.658 19.0623C18.5166 19.0983 17.628 18.8888 16.7351 18.1444C13.7601 15.6644 15.0266 10.4197 19.0434 10.0701Z" fill="#010678"/>
<path d="M18.5085 11.4421C19.6623 11.3962 20.6341 12.2958 20.6772 13.4498C20.7203 14.6037 19.8183 15.5733 18.6643 15.6136C17.5142 15.6537 16.5487 14.7555 16.5058 13.6055C16.4628 12.4557 17.3586 11.4879 18.5085 11.4421Z" fill="#F1F4F6"/>
<path d="M20.1782 34.6524C20.1633 34.2193 20.3381 34.0978 20.5698 33.7607C21.5024 32.4039 22.9876 32.0144 24.3535 33.0478C25.2539 33.802 25.7967 34.9307 26.5666 35.825C26.7723 36.0639 27.3764 36.4935 27.4391 36.5762L27.4382 43.6083L27.4404 45.599C27.4408 46.1731 27.485 46.7969 27.3529 47.3578C26.4573 51.1594 21.1645 51.1615 20.2644 47.3625C20.1368 46.8241 20.177 46.2216 20.1776 45.6681L20.18 43.8449L20.1794 37.4003L20.1782 34.6524Z" fill="#4E56A6"/>
<path d="M20.1782 34.6524C20.1633 34.2193 20.3381 34.0978 20.5698 33.7607C21.5024 32.4039 22.9876 32.0144 24.3535 33.0478C24.0282 33.1825 23.7968 33.273 23.509 33.4762C22.2728 34.3488 21.5707 36.8345 20.1795 37.4003L20.1782 34.6524Z" fill="#373C75"/>
</svg>
