<svg width="52" height="51" viewBox="0 0 52 51" fill="none" xmlns="http://www.w3.org/2000/svg">
<path fill-rule="evenodd" clip-rule="evenodd" d="M14.0838 0.925056C15.8948 1.42697 17.0369 2.74477 21.9792 10.0355C23.6482 12.4972 24.9756 14.2422 25.2872 14.384C25.6353 14.5422 25.9993 14.5536 26.3858 14.4187C26.9476 14.2222 27.6628 13.2633 32.5099 6.20668C34.2148 3.72434 36.009 1.70092 36.9704 1.1758C37.5224 0.874397 38.4241 0.804367 42.5345 0.744341C48.4046 0.65856 48.901 0.75243 49.4615 2.0532C49.8896 3.04703 50.1859 4.67623 50.5138 7.8395C50.6349 9.01021 50.8427 10.878 50.9752 11.9902C51.1078 13.1024 51.293 15.4012 51.3871 17.0988C51.4809 18.7963 51.6714 21.3053 51.8105 22.6741C52.1567 26.0841 51.9922 47.4669 51.61 48.7444C51.4639 49.2327 51.1066 49.8553 50.816 50.128C50.2998 50.6125 50.1768 50.6252 45.4517 50.6916C40.106 50.7666 39.2385 50.6421 38.8272 49.7415C38.5625 49.1616 38.7536 47.1963 39.5386 42.4287C39.7026 41.4336 39.994 39.3264 40.1864 37.7459C40.379 36.1654 40.6263 34.2897 40.7359 33.5777C40.8458 32.8657 40.9356 31.6529 40.9356 30.8825C40.9356 30.1122 41.0796 28.7312 41.2555 27.8136C41.6399 25.8085 41.7037 18.1675 41.3443 17.1392C41.077 16.374 40.5087 16.1186 39.8524 16.4691C38.968 16.9415 35.2861 25.4796 31.445 35.9658C30.0255 39.841 30.0427 39.8298 25.627 39.784C22.5837 39.7527 22.5837 39.7527 21.9696 39.1218C21.5157 38.6557 20.7019 36.7682 18.8521 31.8923C16.3564 25.3129 14.3443 20.4268 13.1785 18.1141C12.2161 16.2048 11.1881 15.7923 10.6461 17.0975C10.1779 18.2259 10.5693 29.2191 11.2641 34.4466C11.404 35.5003 11.6583 37.416 11.8289 38.7038C12.4138 43.1171 12.8016 45.7287 12.9983 46.5795C13.3368 48.045 13.2511 49.5624 12.798 50.1212C12.3931 50.6206 12.3588 50.6242 7.26198 50.6876C1.45678 50.76 1.08136 50.6825 0.443349 49.2793C0.126158 48.5814 0.0790182 47.1246 0.0145989 36.043C-0.0297693 28.4383 0.0288895 22.6795 0.164767 21.2495C0.538698 17.315 0.887459 13.2695 1.04573 11.0324C1.1285 9.86164 1.30149 8.23329 1.43012 7.41379C1.55874 6.59429 1.77141 5.12409 1.90302 4.14643C2.19781 1.95337 2.45613 1.36461 3.28142 1.00594C4.07301 0.661754 12.8955 0.595767 14.0838 0.925056ZM22.2241 44.8955C24.2847 46.4162 23.9639 49.3204 21.6375 50.207C20.3182 50.7097 19.309 50.4852 18.2819 49.4605C17.5652 48.7451 17.4716 48.532 17.4724 47.6157C17.4739 45.6542 18.882 44.2497 20.6921 44.4047C21.2316 44.4509 21.921 44.6716 22.2241 44.8955ZM33.0043 44.7766C33.9232 45.3357 34.631 46.8728 34.4582 47.9345C34.2268 49.3587 32.8738 50.5162 31.4399 50.5169C29.8721 50.5177 28.3497 49.0075 28.3512 47.4526C28.3533 45.0897 31.0086 43.5624 33.0043 44.7766Z" fill="#488B83"/>
</svg>
