<svg width="52" height="51" viewBox="0 0 52 51" fill="none" xmlns="http://www.w3.org/2000/svg">
<path d="M26.0001 0.209961C11.8453 0.209961 0.367249 11.686 0.367249 25.8428C0.367249 37.1683 7.71183 46.7765 17.8966 50.1659C19.1776 50.4032 19.648 49.6099 19.648 48.9328C19.648 48.3216 19.6241 46.3023 19.6132 44.1604C12.482 45.711 10.9772 41.1361 10.9772 41.1361C9.81123 38.1732 8.13118 37.3856 8.13118 37.3856C5.80562 35.7946 8.30649 35.8272 8.30649 35.8272C10.8805 36.0081 12.2359 38.4688 12.2359 38.4688C14.5221 42.3875 18.2323 41.2545 19.6951 40.5997C19.925 38.9428 20.5895 37.8122 21.3224 37.1721C15.6292 36.5238 9.64397 34.3259 9.64397 24.5041C9.64397 21.7057 10.6453 19.419 12.2852 17.6239C12.019 16.9782 11.1417 14.3712 12.5334 10.8404C12.5334 10.8404 14.6859 10.1515 19.5843 13.468C21.6288 12.8998 23.8217 12.6152 26.0001 12.6055C28.1785 12.6152 30.373 12.8998 32.4215 13.468C37.3141 10.1515 39.4636 10.8404 39.4636 10.8404C40.8587 14.3712 39.981 16.9782 39.7148 17.6239C41.3583 19.419 42.3528 21.7055 42.3528 24.5041C42.3528 34.3492 36.3564 36.5171 30.6486 37.1516C31.5679 37.9471 32.3871 39.5071 32.3871 41.8984C32.3871 45.328 32.3574 48.0884 32.3574 48.9328C32.3574 49.6149 32.8188 50.4142 34.1183 50.1625C44.2974 46.7693 51.6327 37.1645 51.6327 25.8428C51.6327 11.686 40.1563 0.209961 26.0001 0.209961Z" fill="#16181D"/>
</svg>
