<svg width="52" height="51" viewBox="0 0 52 51" fill="none" xmlns="http://www.w3.org/2000/svg">
<path d="M47.1309 38.8816C44.4007 38.8125 42.2846 39.0897 40.51 39.8517C39.998 40.0594 39.1788 40.0596 39.1105 40.7179C39.3836 40.9951 39.4177 41.4455 39.6566 41.8264C40.0666 42.5191 40.7828 43.4546 41.4313 43.9398C42.1479 44.494 42.8649 45.0482 43.6154 45.5332C44.9466 46.3647 46.4484 46.8496 47.7452 47.6811C48.4963 48.1658 49.2467 48.7898 49.9976 49.3093C50.373 49.5861 50.6118 50.0369 51.0898 50.21V50.1062C50.8507 49.7942 50.7824 49.344 50.5437 48.9975C50.2028 48.651 49.8611 48.3392 49.5197 47.9928C48.5301 46.6419 47.3015 45.4639 45.9706 44.494C44.8785 43.7318 42.4892 42.6926 42.0457 41.4106C42.0457 41.4106 42.0114 41.3762 41.9774 41.3415C42.7282 41.2722 43.6154 40.9951 44.3324 40.7872C45.4927 40.4751 46.5506 40.5446 47.7452 40.2328C48.2912 40.0942 48.8373 39.921 49.3832 39.7478V39.4361C48.7692 38.8125 48.3255 37.9812 47.677 37.3922C45.9364 35.8675 44.025 34.3781 42.0457 33.131C40.9876 32.438 39.6223 31.9876 38.4961 31.3988C38.0869 31.1907 37.4041 31.087 37.1654 30.7405C36.5508 29.9785 36.2095 28.9739 35.7659 28.0731C34.7765 26.1675 33.8206 24.0545 32.9673 22.0453C32.3533 20.6941 31.9778 19.3429 31.2269 18.096C27.7117 12.2066 23.8892 8.63833 18.0192 5.13918C16.7563 4.41179 15.2547 4.09997 13.6507 3.71905C12.7978 3.6842 11.9443 3.61511 11.0912 3.58026C10.545 3.33773 9.99892 2.67964 9.52106 2.36782C7.5761 1.12052 2.55884 -1.58135 1.12547 1.9869C0.203897 4.23856 2.49077 6.45557 3.27542 7.59912C3.85606 8.3958 4.60658 9.29642 5.01617 10.1972C5.2551 10.7858 5.32317 11.4099 5.5621 12.0333C6.10841 13.5572 6.62 15.2551 7.33698 16.6756C7.71244 17.403 8.12183 18.1651 8.59968 18.8234C8.87274 19.2043 9.3504 19.3777 9.45299 20.0012C8.97534 20.6941 8.94101 21.7335 8.66775 22.5995C7.43918 26.5142 7.91723 31.3642 9.65759 34.2395C10.2035 35.1053 11.5005 37.0112 13.2411 36.2835C14.7771 35.66 14.4357 33.6853 14.8791 31.9532C14.9819 31.537 14.9136 31.2602 15.1182 30.9831V31.0526C15.596 32.0223 16.0737 32.9579 16.5174 33.9279C17.5755 35.6252 19.4183 37.3922 20.954 38.5702C21.7734 39.1934 22.4217 40.2675 23.4457 40.6486V40.5444H23.3772C23.1725 40.2326 22.8653 40.0942 22.5924 39.8515C21.9782 39.2283 21.2954 38.466 20.8177 37.7731C19.3845 35.8328 18.1214 33.6851 16.9953 31.4679C16.4494 30.3943 15.9713 29.2163 15.5278 28.1424C15.3228 27.7262 15.3228 27.103 14.9817 26.8953C14.4697 27.6573 13.719 28.3156 13.3435 29.2509C12.6954 30.7405 12.6269 32.5766 12.388 34.4818C12.2515 34.5169 12.3195 34.4818 12.2513 34.5515C11.1594 34.2739 10.784 33.131 10.3742 32.1609C9.35021 29.7013 9.17954 25.752 10.0672 22.9113C10.3061 22.1837 11.3301 19.8974 10.9205 19.2045C10.7157 18.5462 10.0329 18.1651 9.65759 17.6456C9.21407 16.9873 8.73602 16.1561 8.42902 15.4283C7.60984 13.4883 7.20025 11.3404 6.31301 9.40036C5.90342 8.49954 5.18703 7.56447 4.60658 6.73294C3.95827 5.79767 3.24148 5.13918 2.7295 4.03067C2.55903 3.64976 2.31991 3.02611 2.59297 2.61035C2.66123 2.33317 2.79757 2.22943 3.07082 2.16013C3.51454 1.77882 4.77744 2.26388 5.22077 2.47176C6.48367 2.99106 7.54158 3.47652 8.59968 4.20391C9.07734 4.55038 9.58933 5.20867 10.2035 5.38191H10.9203C12.0125 5.62424 13.2409 5.4512 14.2649 5.76283C16.0739 6.35162 17.7119 7.2178 19.1796 8.15327C23.6505 11.0286 27.336 15.1165 29.8277 20.0012C30.2373 20.7976 30.4077 21.5256 30.7832 22.3568C31.5002 24.0545 32.3874 25.7866 33.1038 27.4495C33.8206 29.0775 34.503 30.7405 35.527 32.0918C36.039 32.819 38.0866 33.2003 39.0081 33.5814C39.6908 33.893 40.7489 34.1704 41.3631 34.5513C42.5234 35.2785 43.6837 36.1104 44.7759 36.9069C45.322 37.3227 47.0283 38.1888 47.1309 38.8816Z" fill="#00546B"/>
<path d="M12.3196 8.77539C11.7396 8.77539 11.3302 8.84508 10.9206 8.94883V9.01812H10.9889C11.2621 9.57247 11.7396 9.95359 12.0807 10.4384C12.354 10.9926 12.5927 11.5472 12.8659 12.1015C12.8999 12.0667 12.934 12.0322 12.934 12.0322C13.4121 11.6855 13.6508 11.1314 13.6508 10.2999C13.446 10.0575 13.4119 9.815 13.2412 9.57247C13.0366 9.2258 12.5927 9.05277 12.3196 8.77539Z" fill="#00546B"/>
</svg>
