<svg width="46" height="51" viewBox="0 0 46 51" fill="none" xmlns="http://www.w3.org/2000/svg">
<path d="M20.9528 0.743391C22.1926 0.0337547 23.8074 0.0305493 25.0461 0.743391C31.2779 4.26468 37.5117 7.78045 43.7424 11.3039C44.9143 11.964 45.6982 13.2682 45.6863 14.6186V35.804C45.695 37.2103 44.8337 38.5457 43.5973 39.1909C37.3859 42.6928 31.1778 46.1989 24.9676 49.7008C23.7022 50.4243 22.055 50.3686 20.8291 49.5857C18.9669 48.5062 17.1016 47.4321 15.2393 46.3537C14.8587 46.1268 14.4297 45.9462 14.161 45.5772C14.3986 45.2571 14.8233 45.2172 15.1684 45.0774C15.9457 44.8302 16.6596 44.4335 17.3737 44.0485C17.5543 43.9249 17.7747 43.9722 17.9478 44.0828C19.5402 44.9958 21.1185 45.9354 22.7162 46.8396C23.057 47.0364 23.4021 46.7752 23.6935 46.6128C29.7887 43.1679 35.8914 39.736 41.9855 36.29C42.2113 36.1814 42.3361 35.9417 42.3178 35.6943C42.3221 28.7057 42.3189 21.7158 42.3199 14.7272C42.3457 14.4466 42.1833 14.1885 41.9296 14.0737C35.7398 10.5878 29.5532 7.09664 23.3645 3.60989C23.2573 3.53618 23.1303 3.49663 23.0002 3.49644C22.8701 3.49624 22.7429 3.53542 22.6355 3.60882C16.4468 7.09664 10.2613 10.591 4.0726 14.0767C3.81973 14.1917 3.65002 14.4455 3.68011 14.7272C3.68118 21.7158 3.68011 28.7057 3.68011 35.6954C3.66938 35.8161 3.69589 35.9372 3.75607 36.0423C3.81624 36.1475 3.90719 36.2317 4.01668 36.2836C5.66816 37.2201 7.32178 38.15 8.97434 39.0833C9.90532 39.5844 11.0484 39.8822 12.0741 39.4982C12.9793 39.1736 13.6138 38.2499 13.5965 37.2888C13.605 30.341 13.5922 23.3921 13.6029 16.4453C13.5803 16.1369 13.8729 15.8821 14.1728 15.9111C14.9663 15.9057 15.7608 15.9004 16.5544 15.9132C16.8856 15.9057 17.1135 16.2379 17.0726 16.5486C17.0693 23.5404 17.0811 30.5324 17.0672 37.5243C17.0693 39.3876 16.3038 41.4152 14.5802 42.327C12.4568 43.427 9.83231 43.1937 7.73457 42.1389C5.91854 41.2325 4.1855 40.1628 2.4017 39.1918C1.16211 38.5502 0.305026 37.2094 0.313752 35.8042V14.6186C0.300752 13.2403 1.11581 11.9124 2.32424 11.2619C8.53449 7.75712 14.7437 4.24972 20.9528 0.743391Z" fill="#8CC84B"/>
<path d="M26.3698 15.4177C29.0783 15.2434 31.978 15.3144 34.4153 16.6487C36.3024 17.6712 37.3486 19.8173 37.3819 21.9138C37.3292 22.1965 37.0336 22.3525 36.7636 22.3331C35.9777 22.3321 35.1917 22.3438 34.4059 22.3278C34.0725 22.3406 33.8788 22.0332 33.8369 21.7385C33.6111 20.7354 33.0641 19.7419 32.1199 19.2581C30.6705 18.5324 28.99 18.5689 27.4096 18.5841C26.2558 18.6453 25.0152 18.7452 24.0377 19.4237C23.2873 19.9376 23.0593 20.9751 23.3272 21.8106C23.5797 22.4106 24.2722 22.6042 24.8389 22.7826C28.103 23.6363 31.562 23.5513 34.7638 24.6748C36.0894 25.1328 37.3862 26.0232 37.8399 27.4112C38.4334 29.2713 38.1733 31.4948 36.8498 32.9882C35.7765 34.2171 34.2134 34.8859 32.6543 35.2492C30.5802 35.7117 28.4278 35.7234 26.3215 35.5181C24.341 35.2923 22.2799 34.772 20.7509 33.4225C19.4435 32.2873 18.8049 30.5184 18.8683 28.8112C18.8834 28.5229 19.1705 28.3218 19.4467 28.3455C20.2381 28.3391 21.0295 28.337 21.8208 28.3466C22.1369 28.324 22.3713 28.5971 22.3875 28.8951C22.5335 29.8508 22.8927 30.8539 23.7261 31.4206C25.3345 32.4582 27.3526 32.3872 29.1943 32.4162C30.72 32.3485 32.4328 32.328 33.6779 31.3196C34.3348 30.7444 34.5294 29.7821 34.3519 28.9542C34.1596 28.2552 33.4284 27.9295 32.8005 27.7166C29.5782 26.6972 26.0806 27.0671 22.8895 25.9144C21.594 25.4566 20.3412 24.591 19.8435 23.26C19.149 21.3763 19.4672 19.0464 20.9294 17.6034C22.3551 16.1681 24.4131 15.6154 26.3698 15.4175V15.4177Z" fill="#8CC84B"/>
</svg>
