<svg width="46" height="51" viewBox="0 0 46 51" fill="none" xmlns="http://www.w3.org/2000/svg">
<path d="M39.8912 0.209961H36.7608C33.8057 0.209961 32.228 2.11323 32.228 5.81959V24.0258H37.437V15.5613H39.7409C44.0483 15.5613 45.8764 12.5562 45.8764 7.5726C45.8764 2.71426 43.7979 0.209961 39.8912 0.209961ZM38.9395 11.329H37.437V4.49231H38.9646C40.1917 4.49231 40.7927 5.4189 40.7927 7.72286C40.7927 10.1771 40.1416 11.329 38.9395 11.329Z" fill="#3C9CD7"/>
<path d="M7.78626 0.209961H4.65589C1.70082 0.209961 0.123108 2.11323 0.123108 5.81959V24.0258H5.33205V15.5613H7.636C11.9434 15.5613 13.7715 12.5562 13.7715 7.5726C13.7715 2.71426 11.693 0.209961 7.78626 0.209961ZM6.80958 11.329H5.307V4.49231H6.83463C8.06173 4.49231 8.66276 5.4189 8.66276 7.72286C8.68781 10.1771 8.01165 11.329 6.80958 11.329Z" fill="#3C9CD7"/>
<path d="M28.9728 0.209961C26.0177 0.209961 24.44 2.11323 24.44 5.81959V9.22543V9.70125H20.7337V9.22543V0.209961H20.0575C17.1024 0.209961 15.5247 2.11323 15.5247 5.81959V24.0258H20.7337V14.8851V14.4093H24.44V14.8851V24.0258H29.6239V0.235004H28.9728V0.209961Z" fill="#3C9CD7"/>
<path d="M13.7583 26.5869H8.93573V30.9199H13.7583V26.5869Z" fill="#356388"/>
<path d="M35.301 26.5869H30.5763V31.1892H35.301V26.5869Z" fill="#39B54A"/>
<path d="M20.9069 45.2422H16.1823V49.8445H20.9069V45.2422Z" fill="#39B54A"/>
<path d="M13.7583 32.291H8.93573V36.8933H13.7583V32.291Z" fill="#39B54A"/>
<path d="M8.93598 38.264V43.6986C8.93598 44.9716 8.25054 45.7549 7.09997 45.7549C6.02284 45.7549 5.23947 45.0695 5.23947 43.6741V26.5869H4.55402C1.66536 26.5869 0.123108 28.4474 0.123108 32.0705V43.821C0.123108 48.2274 2.64457 50.2103 6.8062 50.2103C10.723 50.2103 13.7831 47.9581 13.7586 43.7231V38.2885H8.93598V38.264Z" fill="#356388"/>
<path d="M45.8769 36.1084V32.4608H43.5023V28.5195H42.009C39.9282 28.5195 38.8021 29.8659 38.8021 32.4608H37.2599V36.1084H38.8021V46.3901C38.8021 48.9605 40.6382 50.1111 42.9393 50.1111C43.8451 50.1111 44.9956 49.9397 45.8524 49.646V45.9005C45.4852 45.9739 44.9712 45.9984 44.4815 45.9984C43.7227 45.9984 43.5023 45.6312 43.5023 44.9947V36.1084H45.8769Z" fill="#356388"/>
<path d="M24.5299 31.9004C22.9877 31.9004 21.7637 32.5614 20.9069 33.7854V32.2921H19.3646C17.2838 32.2921 16.1577 33.6385 16.1577 36.2334V43.8712H20.8824V37.6777C20.8824 36.6251 21.3965 35.8417 22.1798 35.8417C23.2325 35.8417 23.4528 36.6495 23.4528 37.384V49.8444H28.153V35.6214C28.202 33.3202 26.5618 31.9004 24.5299 31.9004Z" fill="#356388"/>
<path d="M33.7832 32.4609C31.7024 32.4609 30.5763 33.8073 30.5763 36.4023V49.8419H35.301V32.4609H33.7832Z" fill="#356388"/>
</svg>
