<svg width="34" height="51" viewBox="0 0 34 51" fill="none" xmlns="http://www.w3.org/2000/svg">
<path fill-rule="evenodd" clip-rule="evenodd" d="M15.3921 0.833662C14.7233 1.21706 14.3346 1.56879 14.3726 1.75659C14.4064 1.92353 15.9023 2.89476 17.6968 3.91508C19.4912 4.93541 22.9322 6.88988 25.3435 8.25874C28.6153 10.1158 29.7435 10.8537 29.79 11.167C29.8383 11.4925 29.5802 11.7492 28.6418 12.3096C27.976 12.707 27.278 13.0323 27.0906 13.0323C26.9032 13.0323 23.3366 11.1057 19.1647 8.75096C14.9927 6.39626 11.276 4.31712 10.9052 4.13053C10.236 3.79363 10.2215 3.79644 8.9171 4.51333C8.19443 4.91056 7.60308 5.35829 7.60308 5.50821C7.60308 5.65832 9.46114 6.83717 11.7323 8.12827C14.0033 9.41936 17.4343 11.3678 19.3566 12.4583C21.2789 13.549 22.9734 14.5855 23.1223 14.7617C23.3537 15.0359 23.3203 15.1403 22.8918 15.4814C22.6162 15.7006 21.9371 16.1061 21.3827 16.3823C20.1376 17.0024 21.0091 17.3882 11.4774 11.9961C7.49603 9.74403 4.06887 7.83766 3.86169 7.7599C3.39494 7.58473 1.16189 8.71148 0.749372 9.33037C0.509366 9.69052 0.472051 12.2717 0.515892 25.475L0.568093 41.191L1.57379 41.8516C2.1268 42.2147 2.76913 42.4853 3.00118 42.4528C3.42287 42.3935 3.42287 42.3901 3.47507 27.1351C3.53237 10.4158 3.48017 11.082 4.68264 11.6991C4.99912 11.8614 5.64797 12.2735 6.12472 12.6148L6.99134 13.2353V28.9667C6.99134 46.6979 6.81945 44.9382 8.64467 45.884C10.3908 46.7888 10.2539 48.0607 10.2539 30.9158C10.2539 19.7611 10.3161 15.6568 10.4876 15.4882C10.7501 15.2303 11.8875 15.7103 13.0577 16.5727C13.7205 17.0611 13.7205 17.0611 13.7205 32.667C13.7205 41.2503 13.7757 48.4148 13.8434 48.5882C13.9111 48.7614 14.5108 49.2281 15.176 49.6254C17.044 50.7407 16.9831 50.9335 16.9831 43.9032C16.9831 38.4841 17.0153 37.9176 17.3399 37.6294C17.5363 37.455 19.4402 36.324 21.5711 35.1161C23.702 33.908 27.143 31.9569 29.2178 30.7799C31.2926 29.603 33.1087 28.4883 33.2533 28.3027C33.4225 28.0855 33.4953 27.5002 33.4572 26.6615C33.4044 25.4971 33.3507 25.3514 32.9545 25.2958C32.7104 25.2618 32.114 25.4808 31.6291 25.7827C28.7945 27.5465 17.677 33.6817 17.4072 33.631C17.1515 33.5831 17.073 33.2382 17.0265 31.9573C16.9592 30.1081 16.9527 30.1183 18.9202 29.01C28.8237 23.4306 33.0363 20.9881 33.2533 20.6993C33.4217 20.4752 33.4951 19.8806 33.4572 19.0476C33.4093 17.9934 33.3299 17.7335 33.04 17.6792C32.7027 17.616 31.4176 18.3151 21.7124 23.8422C19.5471 25.0754 17.6201 26.0552 17.4302 26.0196C16.8976 25.9195 16.8146 22.8618 17.3324 22.4096C17.6694 22.115 24.9414 17.9459 28.7081 15.8876C31.1256 14.5665 32.9572 13.4299 33.2451 13.072C33.4023 12.8766 33.5 12.1218 33.5 11.1003C33.5 9.46525 33.4921 9.4394 32.8373 8.96421C31.3689 7.89859 17.4198 0.205954 16.9633 0.209963C16.6937 0.212368 15.9867 0.493153 15.3921 0.833662Z" fill="#00DE72"/>
</svg>
