<svg width="50" height="51" viewBox="0 0 50 51" fill="none" xmlns="http://www.w3.org/2000/svg">
<path d="M24.8216 1.09961C12.2895 1.09961 13.072 6.53425 13.072 6.53425L13.0859 12.1647H25.0451V13.8551H8.33597C8.33597 13.8551 0.316711 12.9456 0.316711 25.5904C0.316711 38.2355 7.31612 37.7871 7.31612 37.7871H11.4933V31.9192C11.4933 31.9192 11.2682 24.9198 18.381 24.9198H30.2423C30.2423 24.9198 36.9064 25.0275 36.9064 18.4792V7.65211C36.9064 7.65211 37.9185 1.09961 24.8216 1.09961ZM18.2274 4.88598C18.51 4.88572 18.7898 4.9412 19.051 5.04923C19.3121 5.15726 19.5494 5.31572 19.7492 5.51555C19.949 5.71538 20.1075 5.95265 20.2155 6.21379C20.3236 6.47493 20.379 6.75481 20.3788 7.03741C20.379 7.32001 20.3236 7.59989 20.2155 7.86103C20.1075 8.12217 19.949 8.35944 19.7492 8.55927C19.5494 8.7591 19.3121 8.91756 19.051 9.02559C18.7898 9.13362 18.51 9.1891 18.2274 9.18884C17.9448 9.1891 17.6649 9.13362 17.4037 9.02559C17.1426 8.91756 16.9053 8.7591 16.7055 8.55927C16.5057 8.35944 16.3472 8.12217 16.2392 7.86103C16.1311 7.59989 16.0757 7.32001 16.0759 7.03741C16.0757 6.75481 16.1311 6.47493 16.2392 6.21379C16.3472 5.95265 16.5057 5.71538 16.7055 5.51555C16.9053 5.31572 17.1426 5.15726 17.4037 5.04923C17.6649 4.9412 17.9448 4.88572 18.2274 4.88598Z" fill="url(#paint0_linear_0_3812)"/>
<path d="M25.1783 50.21C37.7104 50.21 36.9279 44.7753 36.9279 44.7753L36.914 39.1451H24.9547V37.4547H41.6638C41.6638 37.4547 49.683 38.3641 49.683 25.719C49.683 13.074 42.6836 13.5225 42.6836 13.5225H38.5064V19.3901C38.5064 19.3901 38.7316 26.3895 31.6187 26.3895H19.7574C19.7574 26.3895 13.0934 26.2819 13.0934 32.8303V43.6577C13.0934 43.6577 12.0814 50.21 25.1781 50.21H25.1783ZM31.7726 46.424C31.49 46.4243 31.2101 46.3688 30.949 46.2607C30.6878 46.1527 30.4505 45.9943 30.2507 45.7944C30.0509 45.5946 29.8924 45.3573 29.7844 45.0962C29.6764 44.835 29.6209 44.5552 29.6211 44.2726C29.6209 43.9899 29.6763 43.71 29.7843 43.4489C29.8924 43.1877 30.0508 42.9504 30.2506 42.7506C30.4505 42.5507 30.6878 42.3922 30.9489 42.2842C31.2101 42.1762 31.49 42.1207 31.7726 42.1209C32.0552 42.1207 32.3351 42.1762 32.5962 42.2842C32.8573 42.3922 33.0946 42.5507 33.2944 42.7505C33.4943 42.9503 33.6527 43.1876 33.7608 43.4487C33.8688 43.7099 33.9243 43.9898 33.924 44.2724C33.9243 44.555 33.8688 44.8348 33.7608 45.096C33.6527 45.3571 33.4943 45.5944 33.2944 45.7942C33.0946 45.9941 32.8573 46.1525 32.5962 46.2606C32.3351 46.3686 32.0552 46.4241 31.7726 46.4238V46.424Z" fill="url(#paint1_linear_0_3812)"/>
<path d="M2.21661 0.209961C1.64596 0.209961 1.2432 0.278524 0.840256 0.380583V0.448754H0.907414C1.17624 0.994118 1.64596 1.36906 1.98155 1.84605C2.25038 2.39122 2.48524 2.93678 2.75406 3.48214C2.78745 3.44786 2.82103 3.41397 2.82103 3.41397C3.29133 3.07293 3.52619 2.52776 3.52619 1.70971C3.32471 1.47131 3.29113 1.23271 3.12324 0.994118C2.92196 0.653069 2.48524 0.482839 2.21661 0.209961Z" fill="#00546B"/>
<defs>
<linearGradient id="paint0_linear_0_3812" x1="5.06072" y1="5.51665" x2="29.5247" y2="29.7366" gradientUnits="userSpaceOnUse">
<stop stop-color="#387EB8"/>
<stop offset="1" stop-color="#366994"/>
</linearGradient>
<linearGradient id="paint1_linear_0_3812" x1="20.0776" y1="21.0708" x2="46.3492" y2="45.9062" gradientUnits="userSpaceOnUse">
<stop stop-color="#FFE052"/>
<stop offset="1" stop-color="#FFC331"/>
</linearGradient>
</defs>
</svg>
