<svg width="48" height="51" viewBox="0 0 48 51" fill="none" xmlns="http://www.w3.org/2000/svg">
<path fill-rule="evenodd" clip-rule="evenodd" d="M4.94261 23.0747C4.02348 23.9044 3.72137 24.6278 3.72137 25.2073C3.72137 25.7868 4.02348 26.5102 4.94261 27.3399C5.86111 28.169 7.27314 28.9834 9.14338 29.6975C12.8735 31.1218 18.1257 32.0334 24 32.0334C29.8742 32.0334 35.1264 31.1218 38.8566 29.6975C40.7268 28.9834 42.1388 28.169 43.0573 27.3399C43.9765 26.5102 44.2786 25.7868 44.2786 25.2073C44.2786 24.6278 43.9765 23.9044 43.0573 23.0747C42.1388 22.2455 40.7268 21.4312 38.8566 20.7171C35.1264 19.2928 29.8742 18.3812 24 18.3812C18.1257 18.3812 12.8735 19.2928 9.14338 20.7171C7.27314 21.4312 5.86111 22.2455 4.94261 23.0747ZM8.10014 17.9541C12.2412 16.373 17.8631 15.4258 24 15.4258C30.1369 15.4258 35.7587 16.373 39.8998 17.9541C41.9652 18.7427 43.7381 19.7177 45.0206 20.8755C46.3025 22.0327 47.2175 23.4937 47.2175 25.2073C47.2175 26.9208 46.3025 28.3819 45.0206 29.5391C43.7381 30.6969 41.9652 31.6718 39.8998 32.4604C35.7587 34.0416 30.1369 34.9888 24 34.9888C17.8631 34.9888 12.2412 34.0416 8.10014 32.4604C6.03475 31.6718 4.26184 30.6969 2.97932 29.5391C1.69742 28.3819 0.78241 26.9208 0.78241 25.2073C0.78241 23.4937 1.69742 22.0327 2.97932 20.8755C4.26184 19.7177 6.03475 18.7427 8.10014 17.9541Z" fill="#61DAFB"/>
<path fill-rule="evenodd" clip-rule="evenodd" d="M16.3301 7.64264C15.1535 7.262 14.3719 7.36015 13.8638 7.65349C13.3557 7.94683 12.8799 8.57463 12.6213 9.78393C12.3626 10.9933 12.3634 12.6222 12.6799 14.5977C13.3111 18.538 15.1469 23.5404 18.0831 28.6261C21.0193 33.7118 24.4337 37.8028 27.5304 40.3197C29.083 41.5815 30.4933 42.3966 31.67 42.7773C32.8466 43.1579 33.6282 43.0598 34.1363 42.7664C34.6444 42.4731 35.1202 41.8453 35.3788 40.636C35.6375 39.4266 35.6367 37.7977 35.3202 35.8222C34.6889 31.8819 32.8532 26.8795 29.917 21.7938C26.9808 16.7081 23.5664 12.6171 20.4697 10.1003C18.9171 8.83842 17.5068 8.02332 16.3301 7.64264ZM22.3223 7.81212C25.7639 10.6093 29.3964 15.006 32.4657 20.3223C35.5351 25.6385 37.5265 30.9828 38.2281 35.3619C38.5781 37.5461 38.6202 39.5701 38.2587 41.2603C37.8971 42.9506 37.0896 44.4691 35.6119 45.3223C34.1342 46.1755 32.4154 46.1155 30.7708 45.5835C29.1262 45.0514 27.3945 44.003 25.6778 42.6078C22.2362 39.8107 18.6037 35.4139 15.5344 30.0976C12.465 24.7814 10.4736 19.4371 9.77197 15.058C9.42203 12.8738 9.37992 10.8498 9.74144 9.15961C10.103 7.46931 10.9105 5.9508 12.3882 5.09763C13.8659 4.24445 15.5847 4.30441 17.2293 4.83646C18.8739 5.36847 20.6056 6.41694 22.3223 7.81212Z" fill="#61DAFB"/>
<path fill-rule="evenodd" clip-rule="evenodd" d="M35.379 9.78399C35.1203 8.57468 34.6445 7.94689 34.1364 7.65354C33.6284 7.3602 32.8468 7.26205 31.6702 7.6427C30.4935 8.02337 29.0832 8.83848 27.5306 10.1003C24.4338 12.6172 21.0195 16.7082 18.0833 21.7939C15.147 26.8796 13.3113 31.8819 12.68 35.8223C12.3635 37.7977 12.3628 39.4266 12.6214 40.636C12.8801 41.8453 13.3559 42.4731 13.864 42.7665C14.3721 43.0598 15.1537 43.158 16.3303 42.7773C17.507 42.3967 18.9173 41.5815 20.4698 40.3197C23.5666 37.8028 26.9809 33.7119 29.9172 28.6262C32.8534 23.5405 34.6891 18.5381 35.3204 14.5978C35.6369 12.6223 35.6377 10.9934 35.379 9.78399ZM38.2283 15.0581C37.5267 19.4372 35.5352 24.7814 32.4659 30.0977C29.3966 35.4139 25.764 39.8107 22.3224 42.6079C20.6058 44.003 18.874 45.0515 17.2295 45.5835C15.5849 46.1156 13.8661 46.1755 12.3884 45.3223C10.9106 44.4692 10.1031 42.9507 9.7416 41.2604C9.38008 39.5702 9.42219 37.5462 9.77214 35.3619C10.4737 30.9829 12.4652 25.6386 15.5345 20.3223C18.6039 15.0061 22.2364 10.6093 25.678 7.81217C27.3946 6.41699 29.1264 5.36853 30.7709 4.83651C32.4155 4.30447 34.1343 4.24451 35.6121 5.09768C37.0898 5.95086 37.8973 7.46937 38.2588 9.15966C38.6203 10.8499 38.5782 12.8739 38.2283 15.0581Z" fill="#61DAFB"/>
</svg>
