<svg width="60" height="51" viewBox="0 0 60 51" fill="none" xmlns="http://www.w3.org/2000/svg">
<path d="M56.9858 38.7207C53.8606 40.3496 37.6714 47.0061 34.2248 48.8029C30.7782 50.6 28.8636 50.5826 26.1407 49.281C23.4181 47.9794 6.18993 41.0203 3.08646 39.5369C1.53552 38.7957 0.719795 38.1699 0.719795 37.5788V31.6596C0.719795 31.6596 23.1489 26.7769 26.7698 25.4778C30.3905 24.1787 31.6468 24.1318 34.7281 25.2605C37.8098 26.3896 56.2348 29.7138 59.2802 30.8292L59.2788 36.6647C59.2793 37.2498 58.5766 37.8917 56.9858 38.7207Z" fill="#912626"/>
<path d="M56.9846 32.8371C53.8597 34.4654 37.6709 41.122 34.2243 42.9186C30.7779 44.7159 28.8633 44.6983 26.1407 43.3967C23.4179 42.096 6.19034 35.1358 3.08709 33.6533C-0.01615 32.1698 -0.0811155 31.1489 2.96723 29.9553C6.01557 28.7612 23.1486 22.0394 26.77 20.7403C30.3907 19.4417 31.6467 19.3943 34.728 20.5234C37.8095 21.6521 53.9017 28.0573 56.9467 29.1725C59.9927 30.289 60.1096 31.2084 56.9846 32.8371Z" fill="#C6302B"/>
<path d="M56.9858 29.1415C53.8606 30.7706 37.6714 37.4268 34.2248 39.2244C30.7782 41.0208 28.8636 41.0034 26.1407 39.7018C23.4179 38.4009 6.18993 31.4411 3.08646 29.9576C1.53552 29.2165 0.719795 28.5915 0.719795 28.0002V22.0804C0.719795 22.0804 23.1489 17.1979 26.7698 15.8988C30.3905 14.5997 31.6468 14.5526 34.7281 15.6815C37.81 16.8104 56.2351 20.1339 59.2802 21.2495L59.2788 27.0857C59.2793 27.6706 58.5766 28.3125 56.9858 29.1415Z" fill="#912626"/>
<path d="M56.9846 23.2579C53.8597 24.8866 37.6709 31.5428 34.2243 33.3401C30.7779 35.1367 28.8633 35.1191 26.1407 33.8175C23.4179 32.5169 6.19034 25.5569 3.08709 24.0741C-0.01615 22.5911 -0.0811155 21.5699 2.96723 20.3759C6.01557 19.1825 23.1488 12.4601 26.77 11.1613C30.3907 9.86244 31.6467 9.81532 34.728 10.9442C37.8095 12.0729 53.9017 18.4777 56.9467 19.5933C59.9927 20.7096 60.1096 21.6292 56.9846 23.2579Z" fill="#C6302B"/>
<path d="M56.9858 19.2113C53.8606 20.84 37.6714 27.4967 34.2248 29.2943C30.7782 31.0909 28.8636 31.0733 26.1407 29.7717C23.4179 28.4707 6.18993 21.5107 3.08646 20.028C1.53552 19.2861 0.719795 18.6609 0.719795 18.0703V12.1502C0.719795 12.1502 23.1489 7.26796 26.7698 5.96911C30.3905 4.66979 31.6468 4.62313 34.7281 5.75179C37.81 6.88068 56.2351 10.2042 59.2802 11.3198L59.2788 17.1558C59.2793 17.7402 58.5766 18.3821 56.9858 19.2113Z" fill="#912626"/>
<path d="M56.9845 13.328C53.8595 14.9567 37.6708 21.6133 34.2242 23.41C30.7778 25.2066 28.8632 25.189 26.1406 23.888C23.418 22.5864 6.19022 15.6269 3.08721 14.1439C-0.0162642 12.6611 -0.0810009 11.6398 2.96711 10.4459C6.01546 9.25228 23.1487 2.53087 26.7699 1.23156C30.3905 -0.0675198 31.6466 -0.114185 34.7279 1.0147C37.8094 2.14359 53.9016 8.54841 56.9465 9.66403C59.9926 10.7794 60.1095 11.6992 56.9845 13.328Z" fill="#C6302B"/>
<path d="M37.156 7.56704L32.1211 8.08974L30.9941 10.8018L29.1737 7.77544L23.3599 7.25297L27.698 5.68854L26.3964 3.28711L30.4579 4.87556L34.2867 3.622L33.2518 6.1051L37.156 7.56704ZM30.6935 20.7244L21.297 16.8271L34.7614 14.7604L30.6935 20.7244ZM17.6661 9.07452C21.6406 9.07452 24.8626 10.3235 24.8626 11.8639C24.8626 13.4048 21.6406 14.6535 17.6661 14.6535C13.6915 14.6535 10.4695 13.4045 10.4695 11.8639C10.4695 10.3235 13.6915 9.07452 17.6661 9.07452Z" fill="white"/>
<path d="M43.1064 8.30882L51.0753 11.4578L43.1133 14.6039L43.1064 8.30859" fill="#621B1C"/>
<path d="M34.2905 11.7959L43.1066 8.30859L43.1135 14.6036L42.249 14.9417L34.2905 11.7959Z" fill="#9A2928"/>
</svg>
