<svg width="66" height="51" viewBox="0 0 66 51" fill="none" xmlns="http://www.w3.org/2000/svg">
<path d="M56.8312 28.953C54.5286 28.9652 52.5275 29.5254 50.8518 30.3535C50.237 29.1235 49.6222 28.0275 49.5137 27.2237C49.3931 26.2861 49.2485 25.7137 49.3931 24.5933C49.5378 23.473 50.1888 21.8777 50.1767 21.7559C50.1647 21.6341 50.0321 21.0617 48.706 21.0496C47.3799 21.0374 46.2347 21.3053 46.1021 21.6584C45.9695 22.0116 45.7163 22.8153 45.5475 23.6434C45.3185 24.8612 42.8954 29.2087 41.5091 31.486C41.063 30.597 40.6773 29.8176 40.5929 29.1966C40.4723 28.2589 40.3277 27.6865 40.4723 26.5661C40.617 25.4458 41.268 23.8505 41.2559 23.7287C41.2439 23.6069 41.1112 23.0346 39.7852 23.0224C38.4591 23.0102 37.3139 23.2781 37.1813 23.6313C37.0487 23.9844 36.904 24.8125 36.6267 25.6163C36.3495 26.42 33.1307 33.678 32.2869 35.5534C31.8529 36.5155 31.4792 37.2827 31.214 37.8063C31.214 37.8063 31.2019 37.8429 31.1657 37.9038C30.9367 38.3543 30.8041 38.5979 30.8041 38.5979C30.8041 38.5979 30.8041 38.5979 30.8041 38.6101C30.6233 38.9389 30.4304 39.2433 30.3339 39.2433C30.2616 39.2433 30.129 38.3665 30.358 37.1731C30.8403 34.6523 31.9855 30.731 31.9734 30.597C31.9734 30.524 32.1904 29.842 31.226 29.4888C30.2857 29.1357 29.9482 29.7202 29.8638 29.7202C29.7794 29.7202 29.7191 29.9272 29.7191 29.9272C29.7191 29.9272 30.7679 25.5188 27.718 25.5188C25.8132 25.5188 23.1852 27.6256 21.8833 29.5254C21.0635 29.976 19.3155 30.938 17.447 31.9731C16.7357 32.375 16.0004 32.7769 15.3132 33.1544C15.265 33.1057 15.2168 33.0448 15.1685 32.9961C11.4797 29.0139 4.65645 26.2008 4.94578 20.8547C5.05427 18.9062 5.7173 13.7915 18.0497 7.5808C28.2002 2.52697 36.2771 3.92743 37.6755 7.03279C39.6767 11.4655 33.3477 19.6978 22.8597 20.8912C18.8574 21.3418 16.7598 19.7831 16.2294 19.1985C15.6749 18.5896 15.5905 18.5531 15.3855 18.6749C15.048 18.8575 15.265 19.4055 15.3855 19.7222C15.699 20.5503 16.9889 22.0116 19.1709 22.7301C21.0997 23.3634 25.7891 23.7165 31.4671 21.5001C37.8202 19.0158 42.7869 12.111 41.3282 6.32648C39.8696 0.45673 30.2254 -1.47955 21.0997 1.7963C15.6749 3.74476 9.79195 6.81359 5.56059 10.8079C0.533587 15.5573 -0.262053 19.6856 0.0634366 21.4149C1.23279 27.5526 9.61112 31.5469 12.9625 34.5061C12.7937 34.6035 12.637 34.6888 12.5044 34.7619C10.8287 35.6021 4.43946 38.9754 2.84818 42.5435C1.0399 46.5866 3.1375 49.4849 4.52384 49.8746C8.82753 51.0802 13.2518 48.9126 15.6266 45.3323C18.0015 41.752 17.7122 37.1 16.6152 34.9689C16.6031 34.9445 16.5911 34.9202 16.5669 34.8958C17.0009 34.6401 17.447 34.3722 17.881 34.1164C18.7369 33.605 19.5807 33.13 20.304 32.7403C19.8942 33.8729 19.5928 35.2246 19.4481 37.1731C19.2673 39.4625 20.1955 42.4339 21.4131 43.603C21.9556 44.1145 22.5945 44.1267 23.0044 44.1267C24.4269 44.1267 25.0658 42.9332 25.7771 41.5206C26.6451 39.7913 27.4286 37.782 27.4286 37.782C27.4286 37.782 26.4522 43.2133 29.1043 43.2133C30.0687 43.2133 31.0452 41.9468 31.4792 41.3014C31.4792 41.3136 31.4792 41.3136 31.4792 41.3136C31.4792 41.3136 31.5033 41.277 31.5515 41.1918C31.6479 41.0335 31.7082 40.9361 31.7082 40.9361C31.7082 40.9361 31.7082 40.9239 31.7082 40.9117C32.094 40.2297 32.962 38.6831 34.2519 36.1136C35.9155 32.8012 37.5188 28.6607 37.5188 28.6607C37.5188 28.6607 37.6635 29.6715 38.1577 31.3521C38.4471 32.3385 39.0498 33.4223 39.532 34.4696C39.1463 35.0176 38.9052 35.322 38.9052 35.322C38.9052 35.322 38.9051 35.322 38.9172 35.3342C38.6038 35.7483 38.2662 36.1989 37.8925 36.6373C36.5785 38.2204 35.0113 40.0349 34.7943 40.5585C34.5412 41.1796 34.6015 41.6302 35.0837 41.9955C35.4333 42.2635 36.0601 42.3 36.6991 42.2634C37.8805 42.1782 38.7123 41.8859 39.1221 41.7033C39.7611 41.4719 40.5085 41.1187 41.2077 40.5951C42.4976 39.633 43.2812 38.2569 43.2088 36.4424C43.1727 35.4438 42.8472 34.4452 42.4494 33.5075C42.5699 33.337 42.6784 33.1666 42.799 32.9961C44.8363 29.9881 46.4155 26.6879 46.4155 26.6879C46.4155 26.6879 46.5602 27.6987 47.0544 29.3792C47.2955 30.2317 47.7898 31.1572 48.2238 32.0584C46.307 33.6293 45.1256 35.456 44.7037 36.6494C43.9442 38.8658 44.5349 39.8644 45.656 40.0958C46.1624 40.2054 46.8857 39.9618 47.4161 39.7304C48.0912 39.5112 48.8868 39.1337 49.6463 38.5735C50.9362 37.6115 52.1779 36.2719 52.1055 34.4574C52.0694 33.6293 51.8524 32.8134 51.551 32.0218C53.1785 31.3399 55.2761 30.9624 57.9523 31.279C63.6906 31.961 64.8237 35.5778 64.6068 37.1C64.3898 38.6223 63.1842 39.4504 62.7864 39.7061C62.3886 39.9618 62.256 40.0471 62.2922 40.2297C62.3404 40.4977 62.5333 40.4855 62.8708 40.4368C63.341 40.3515 65.8846 39.2068 65.9931 36.4059C66.1739 32.8256 62.7985 28.9165 56.8312 28.953ZM12.5646 44.0292C10.6599 46.1238 8.00778 46.9154 6.86255 46.2456C5.63292 45.5271 6.11512 42.4339 8.45382 40.2176C9.87633 38.8658 11.7087 37.6115 12.9263 36.8443C13.2036 36.6738 13.6134 36.4302 14.1077 36.1258C14.1921 36.0771 14.2403 36.0527 14.2403 36.0527C14.3367 35.9918 14.4332 35.9309 14.5296 35.87C15.3855 39.0363 14.5658 41.825 12.5646 44.0292ZM26.4281 34.5061C25.765 36.138 24.3787 40.315 23.5348 40.0836C22.8115 39.8888 22.3655 36.7225 23.3902 33.5928C23.9085 32.0218 25.0056 30.1464 25.6445 29.4158C26.6812 28.2467 27.8265 27.857 28.1037 28.3319C28.4533 28.953 26.8379 33.4832 26.4281 34.5061ZM37.8684 40.0349C37.5911 40.181 37.3259 40.2785 37.2054 40.2054C37.121 40.1567 37.3259 39.9618 37.3259 39.9618C37.3259 39.9618 38.7605 38.4031 39.3271 37.6967C39.6526 37.2827 40.0383 36.7956 40.4482 36.2476C40.4482 36.2963 40.4482 36.3572 40.4482 36.4059C40.4482 38.2691 38.664 39.5234 37.8684 40.0349ZM46.6928 38.0012C46.4878 37.855 46.524 37.3679 47.2112 35.8457C47.4764 35.249 48.1032 34.2504 49.1761 33.2883C49.2967 33.678 49.3811 34.0555 49.369 34.4087C49.357 36.759 47.6934 37.6358 46.6928 38.0012Z" fill="#CD6799"/>
</svg>
