<svg width="20" height="20" viewBox="0 0 20 20" fill="none" xmlns="http://www.w3.org/2000/svg">
<path d="M14.9317 11.9271C14.7159 12.1363 14.6167 12.4388 14.6659 12.7355L15.4067 16.8355C15.4692 17.183 15.3225 17.5346 15.0317 17.7355C14.7467 17.9438 14.3675 17.9688 14.0567 17.8021L10.3659 15.8771C10.2375 15.8088 10.095 15.7721 9.94921 15.768H9.72338C9.64505 15.7796 9.56838 15.8046 9.49838 15.843L5.80672 17.7771C5.62421 17.8688 5.41755 17.9013 5.21505 17.8688C4.72171 17.7755 4.39255 17.3055 4.47338 16.8096L5.21505 12.7096C5.26421 12.4105 5.16505 12.1063 4.94921 11.8938L1.94005 8.97715C1.68838 8.73298 1.60088 8.36631 1.71588 8.03548C1.82755 7.70548 2.11255 7.46465 2.45671 7.41048L6.59838 6.80965C6.91338 6.77715 7.19005 6.58548 7.33171 6.30215L9.15671 2.56048C9.20005 2.47715 9.25588 2.40048 9.32338 2.33548L9.39838 2.27715C9.43755 2.23382 9.48255 2.19798 9.53255 2.16882L9.62338 2.13548L9.76505 2.07715H10.1159C10.4292 2.10965 10.705 2.29715 10.8492 2.57715L12.6984 6.30215C12.8317 6.57465 13.0909 6.76381 13.39 6.80965L17.5317 7.41048C17.8817 7.46048 18.1742 7.70215 18.29 8.03548C18.3992 8.36965 18.305 8.73631 18.0484 8.97715L14.9317 11.9271Z" fill="#FF743F"/>
</svg>
