<svg width="21" height="20" viewBox="0 0 21 20" fill="none" xmlns="http://www.w3.org/2000/svg">
<path d="M15.5984 11.9271C15.3826 12.1363 15.2834 12.4388 15.3326 12.7355L16.0734 16.8355C16.1359 17.183 15.9893 17.5346 15.6984 17.7355C15.4134 17.9438 15.0343 17.9688 14.7234 17.8021L11.0326 15.8771C10.9043 15.8088 10.7618 15.7721 10.6159 15.768H10.3901C10.3118 15.7796 10.2351 15.8046 10.1651 15.843L6.47343 17.7771C6.29093 17.8688 6.08427 17.9013 5.88177 17.8688C5.38843 17.7755 5.05927 17.3055 5.1401 16.8096L5.88177 12.7096C5.93093 12.4105 5.83177 12.1063 5.61593 11.8938L2.60677 8.97715C2.3551 8.73298 2.2676 8.36631 2.3826 8.03548C2.49427 7.70548 2.77927 7.46465 3.12343 7.41048L7.2651 6.80965C7.5801 6.77715 7.85677 6.58548 7.99843 6.30215L9.82343 2.56048C9.86677 2.47715 9.9226 2.40048 9.9901 2.33548L10.0651 2.27715C10.1043 2.23382 10.1493 2.19798 10.1993 2.16882L10.2901 2.13548L10.4318 2.07715H10.7826C11.0959 2.10965 11.3718 2.29715 11.5159 2.57715L13.3651 6.30215C13.4984 6.57465 13.7576 6.76381 14.0568 6.80965L18.1984 7.41048C18.5484 7.46048 18.8409 7.70215 18.9568 8.03548C19.0659 8.36965 18.9718 8.73631 18.7151 8.97715L15.5984 11.9271Z" fill="white" fill-opacity="0.1"/>
</svg>
