<svg width="40" height="45" viewBox="0 0 40 45" fill="none" xmlns="http://www.w3.org/2000/svg">
<path fill-rule="evenodd" clip-rule="evenodd" d="M3.33333 16.3766C3.33333 13.2333 3.33333 11.6633 4.30999 10.6866C5.28666 9.70996 6.85666 9.70996 9.99999 9.70996H30C33.1433 9.70996 34.7133 9.70996 35.69 10.6866C36.6667 11.6633 36.6667 13.2333 36.6667 16.3766C36.6667 19.52 36.6667 21.09 35.69 22.0666C34.7133 23.0433 33.1433 23.0433 30 23.0433H9.99999C6.85666 23.0433 5.28666 23.0433 4.30999 22.0666C3.33333 21.09 3.33333 19.52 3.33333 16.3766ZM9.99999 15.1266C9.66847 15.1266 9.35053 15.2583 9.11611 15.4927C8.88169 15.7272 8.74999 16.0451 8.74999 16.3766C8.74999 16.7081 8.88169 17.0261 9.11611 17.2605C9.35053 17.4949 9.66847 17.6266 9.99999 17.6266H13.3333C13.6648 17.6266 13.9828 17.4949 14.2172 17.2605C14.4516 17.0261 14.5833 16.7081 14.5833 16.3766C14.5833 16.0451 14.4516 15.7272 14.2172 15.4927C13.9828 15.2583 13.6648 15.1266 13.3333 15.1266H9.99999ZM17.0833 16.3766C17.0833 16.0451 17.215 15.7272 17.4494 15.4927C17.6839 15.2583 18.0018 15.1266 18.3333 15.1266H30C30.3315 15.1266 30.6495 15.2583 30.8839 15.4927C31.1183 15.7272 31.25 16.0451 31.25 16.3766C31.25 16.7081 31.1183 17.0261 30.8839 17.2605C30.6495 17.4949 30.3315 17.6266 30 17.6266H18.3333C18.0018 17.6266 17.6839 17.4949 17.4494 17.2605C17.215 17.0261 17.0833 16.7081 17.0833 16.3766ZM3.33333 33.0433C3.33333 29.9 3.33333 28.33 4.30999 27.3533C5.28666 26.3766 6.85666 26.3766 9.99999 26.3766H30C33.1433 26.3766 34.7133 26.3766 35.69 27.3533C36.6667 28.33 36.6667 29.9 36.6667 33.0433C36.6667 36.1866 36.6667 37.7566 35.69 38.7333C34.7133 39.71 33.1433 39.71 30 39.71H9.99999C6.85666 39.71 5.28666 39.71 4.30999 38.7333C3.33333 37.7566 3.33333 36.1866 3.33333 33.0433ZM9.99999 31.7933C9.66847 31.7933 9.35053 31.925 9.11611 32.1594C8.88169 32.3938 8.74999 32.7118 8.74999 33.0433C8.74999 33.3748 8.88169 33.6928 9.11611 33.9272C9.35053 34.1616 9.66847 34.2933 9.99999 34.2933H13.3333C13.6648 34.2933 13.9828 34.1616 14.2172 33.9272C14.4516 33.6928 14.5833 33.3748 14.5833 33.0433C14.5833 32.7118 14.4516 32.3938 14.2172 32.1594C13.9828 31.925 13.6648 31.7933 13.3333 31.7933H9.99999ZM17.0833 33.0433C17.0833 32.7118 17.215 32.3938 17.4494 32.1594C17.6839 31.925 18.0018 31.7933 18.3333 31.7933H30C30.3315 31.7933 30.6495 31.925 30.8839 32.1594C31.1183 32.3938 31.25 32.7118 31.25 33.0433C31.25 33.3748 31.1183 33.6928 30.8839 33.9272C30.6495 34.1616 30.3315 34.2933 30 34.2933H18.3333C18.0018 34.2933 17.6839 34.1616 17.4494 33.9272C17.215 33.6928 17.0833 33.3748 17.0833 33.0433Z" fill="#FF743F"/>
</svg>
