<svg width="40" height="41" viewBox="0 0 40 41" fill="none" xmlns="http://www.w3.org/2000/svg">
<path d="M15.6117 4.45996H24.3883C26.2083 4.45996 27.6517 4.45996 28.8133 4.55496C30.0033 4.65163 31.0083 4.85496 31.9283 5.32163C33.4177 6.08137 34.6284 7.29316 35.3867 8.78329C35.855 9.69996 36.0583 10.7066 36.155 11.8966C36.25 13.0583 36.25 14.5016 36.25 16.3216V25.0983C36.25 26.9183 36.25 28.3616 36.155 29.5233C36.0583 30.7133 35.855 31.7183 35.3883 32.6383C34.629 34.1274 33.4178 35.338 31.9283 36.0966C31.0083 36.565 30.0033 36.7683 28.8133 36.865C27.6517 36.96 26.2083 36.96 24.3883 36.96H15.6117C13.7917 36.96 12.3483 36.96 11.1867 36.865C9.99667 36.7683 8.99167 36.565 8.07333 36.0983C6.58356 35.3393 5.37236 34.1281 4.61333 32.6383C4.145 31.7183 3.94167 30.7133 3.845 29.5233C3.75 28.3616 3.75 26.9183 3.75 25.0983V16.3216C3.75 14.5016 3.75 13.0583 3.845 11.8966C3.94167 10.7066 4.145 9.70163 4.61167 8.78329C5.37112 7.29327 6.58295 6.08203 8.07333 5.32329C8.99 4.85496 9.99667 4.65163 11.1867 4.55496C12.3483 4.45996 13.7917 4.45996 15.6117 4.45996ZM11.39 7.04663C10.3567 7.12996 9.715 7.29163 9.20667 7.54996C8.18772 8.06923 7.35927 8.89768 6.84 9.91663C6.58167 10.425 6.42167 11.0666 6.33667 12.1C6.28333 12.7533 6.26333 13.5183 6.25333 14.46H33.745C33.7457 13.6726 33.7184 12.8854 33.6633 12.1C33.58 11.0666 33.4183 10.425 33.16 9.91663C32.6407 8.89768 31.8123 8.06923 30.7933 7.54996C30.285 7.29163 29.6433 7.13163 28.61 7.04663C27.56 6.96163 26.22 6.95996 24.3333 6.95996H15.6667C13.78 6.95996 12.4383 6.95996 11.39 7.04663Z" fill="#FF743F"/>
</svg>
