<svg width="40" height="45" viewBox="0 0 40 45" fill="none" xmlns="http://www.w3.org/2000/svg">
<path fill-rule="evenodd" clip-rule="evenodd" d="M15.8158 6.75829C16.4883 6.40663 17.7825 5.95996 20.0008 5.95996C22.2192 5.95996 23.5133 6.40579 24.1858 6.75829C24.6958 7.02579 24.9942 7.44996 25.1642 7.80496C25.6151 8.74545 26.0265 9.70434 26.3975 10.6791C27.2935 11.0884 28.1483 11.5826 28.95 12.155C30.25 11.9391 31.5008 11.8291 32.0592 11.7858C32.4517 11.7558 32.9683 11.8016 33.455 12.11C34.0958 12.5158 35.1292 13.4133 36.2392 15.335C37.3475 17.2566 37.6083 18.6 37.6392 19.3583C37.6633 19.9341 37.4442 20.4041 37.2225 20.7291C36.6327 21.591 36.0072 22.4278 35.3475 23.2375C35.4405 24.2169 35.4405 25.203 35.3475 26.1825C36.0072 26.9921 36.6327 27.8289 37.2225 28.6908C37.445 29.0158 37.6633 29.4866 37.6392 30.0616C37.6083 30.82 37.3483 32.1633 36.2383 34.085C35.13 36.0066 34.0967 36.9041 33.455 37.3091C32.9683 37.6175 32.4508 37.6641 32.0592 37.6341C31.5017 37.59 30.25 37.4816 28.95 37.265C28.1483 37.8373 27.2935 38.3315 26.3975 38.7408C25.935 39.9733 25.4058 41.1108 25.1642 41.615C24.9942 41.97 24.6958 42.395 24.1858 42.6616C23.5133 43.0141 22.2192 43.46 20.0008 43.46C17.7825 43.46 16.4883 43.0141 15.8158 42.6616C15.3058 42.3941 15.0075 41.97 14.8375 41.615C14.3866 40.6745 13.9751 39.7156 13.6042 38.7408C12.7081 38.3315 11.8534 37.8373 11.0517 37.265C10.0206 37.4313 8.98303 37.5544 7.94167 37.6341C7.55001 37.6641 7.03334 37.6183 6.54584 37.31C5.90584 36.9041 4.87167 36.0066 3.76251 34.085C2.65334 32.1633 2.39251 30.82 2.36167 30.0616C2.33834 29.4858 2.55667 29.0158 2.77834 28.6908C3.36814 27.8289 3.99368 26.9921 4.65334 26.1825C4.56037 25.203 4.56037 24.2169 4.65334 23.2375C3.99368 22.4278 3.36814 21.591 2.77834 20.7291C2.55667 20.4041 2.33834 19.9333 2.36167 19.3583C2.39334 18.6 2.65501 17.2566 3.76334 15.335C4.87167 13.4133 5.90501 12.5158 6.54667 12.1108C7.03334 11.8025 7.55001 11.7558 7.94251 11.7858C8.98358 11.8655 10.0209 11.9887 11.0517 12.155C11.8534 11.5826 12.7081 11.0884 13.6042 10.6791C14.0667 9.44663 14.5958 8.30913 14.8375 7.80496C15.0075 7.44996 15.3058 7.02496 15.8158 6.75829ZM14.8775 20.4376C15.085 18.9959 16.3567 18.1759 17.715 18.7009C18.6684 19.0701 19.9534 19.6451 21.6425 20.5426C23.2567 21.4001 24.5025 22.1601 25.4425 22.7884C26.9075 23.7676 26.9075 25.6509 25.4425 26.6301C24.5025 27.2584 23.2567 28.0176 21.6425 28.8751C19.9534 29.7734 18.6684 30.3484 17.715 30.7167C16.3567 31.2426 15.0859 30.4226 14.8775 28.9809C14.7192 27.8842 14.5834 26.4409 14.5834 24.7092C14.5796 23.2801 14.6779 21.8526 14.8775 20.4376Z" fill="#FF743F"/>
</svg>
