<svg viewBox="0 0 24 24" xmlns="http://www.w3.org/2000/svg" xmlns:xlink="http://www.w3.org/1999/xlink" width="24.000000" height="24.000000" fill="none">
	<rect id="solar:copy-bold" width="24.000000" height="24.000000" x="0.000000" y="0.000000" fill="rgb(255,255,255)" fill-opacity="0" />
	<path id="Vector" d="M15.24 2L11.346 2C9.582 2 8.184 2 7.091 2.148C5.965 2.3 5.054 2.62 4.336 3.341C3.617 4.062 3.298 4.977 3.147 6.107C3 7.205 3 8.608 3 10.379L3 16.217C3 17.725 3.92 19.017 5.227 19.559C5.16 18.649 5.16 17.374 5.16 16.312L5.16 11.302C5.16 10.021 5.16 8.916 5.278 8.032C5.405 7.084 5.691 6.176 6.425 5.439C7.159 4.702 8.064 4.415 9.008 4.287C9.888 4.169 10.988 4.169 12.265 4.169L15.335 4.169C16.611 4.169 17.709 4.169 18.59 4.287C18.3261 3.61329 17.8653 3.03474 17.2678 2.62678C16.6702 2.21883 15.9635 2.00041 15.24 2Z" fill="rgb(210.865,230.046,255)" fill-rule="nonzero" />
	<path id="Vector" d="M7.60156 12.3924C7.60156 9.66638 7.60156 8.30338 8.44556 7.45638C9.28856 6.60938 10.6456 6.60938 13.3616 6.60938L16.2416 6.60938C18.9566 6.60938 20.3146 6.60938 21.1586 7.45638C22.0026 8.30338 22.0016 9.66638 22.0016 12.3924L22.0016 17.2124C22.0016 19.9384 22.0016 21.3014 21.1586 22.1484C20.3146 22.9954 18.9566 22.9954 16.2416 22.9954L13.3616 22.9954C10.6466 22.9954 9.28856 22.9954 8.44556 22.1484C7.60156 21.3014 7.60156 19.9384 7.60156 17.2124L7.60156 12.3924Z" fill="rgb(210.865,230.046,255)" fill-rule="nonzero" />
</svg>
