<svg viewBox="0 0 160 160" xmlns="http://www.w3.org/2000/svg" xmlns:xlink="http://www.w3.org/1999/xlink" width="160.000198" height="160.000122" fill="none" customFrame="#000000">
	<rect id="Icon Container" width="160.000198" height="160.000122" x="0.000000" y="0.000000" />
	<path id="Icon Part 18" d="M6.20117 18.2002C4.50846 18.2002 3.19824 17.7266 2.27051 16.7793C1.34277 15.832 0.878906 14.4648 0.878906 12.6777C0.878906 11.4245 1.10514 10.3747 1.55762 9.52832C2.01335 8.68197 2.64323 8.04232 3.44727 7.60938C4.25456 7.17643 5.20508 6.95996 6.29883 6.95996C6.91406 6.95996 7.49512 7.01693 8.04199 7.13086C8.58887 7.24479 9.07552 7.40755 9.50195 7.61914L8.74023 9.53809C8.32682 9.35254 7.93945 9.21745 7.57812 9.13281C7.22005 9.04492 6.83431 9.00098 6.4209 9.00098C5.47363 9.00098 4.74609 9.31185 4.23828 9.93359C3.73372 10.5521 3.48145 11.4473 3.48145 12.6191C3.48145 13.7943 3.73698 14.6715 4.24805 15.251C4.76237 15.8304 5.54036 16.1201 6.58203 16.1201C6.97917 16.1201 7.40072 16.0811 7.84668 16.0029C8.2959 15.9215 8.74023 15.7865 9.17969 15.5977L9.17969 17.6191C8.79232 17.8079 8.33822 17.9512 7.81738 18.0488C7.2998 18.1497 6.76107 18.2002 6.20117 18.2002Z" fill="rgb(255,255,255)" fill-opacity="0.800000012" fill-rule="nonzero" transform="matrix(-0.173401,-0.984851,0.984764,-0.173896,2.17969,99.0215)" />
	<path id="Icon Part 17" d="M10.04 12.36L6.48 12.36L6.48 21.26L3.98 21.26L3.98 12.36L0.44 12.36L0.44 10.42L10.04 10.42L10.04 12.36Z" fill="rgb(255,255,255)" fill-opacity="0.800000012" fill-rule="nonzero" transform="matrix(0.119962,-0.992778,0.992736,0.12031,0,75.5691)" />
	<path id="Icon Part 16" d="M0 10.42L2.74 10.42L4.9 16.54C4.99333 16.8067 5.07333 17.0667 5.14 17.32C5.22 17.56 5.28667 17.8067 5.34 18.06C5.39333 18.3133 5.43333 18.5667 5.46 18.82L5.54 18.82C5.59333 18.4867 5.67333 18.12 5.78 17.72C5.9 17.32 6.02 16.9267 6.14 16.54L8.22 10.42L10.94 10.42L6.32 22.7C6.05333 23.4067 5.71333 24.0133 5.3 24.52C4.9 25.0267 4.42 25.4067 3.86 25.66C3.31333 25.9267 2.69333 26.06 2 26.06C1.68 26.06 1.39333 26.04 1.14 26C0.9 25.9733 0.686667 25.94 0.5 25.9L0.5 23.9C0.646667 23.9267 0.82 23.9533 1.02 23.98C1.23333 24.0067 1.45333 24.02 1.68 24.02C2.09333 24.02 2.44667 23.9333 2.74 23.76C3.04667 23.6 3.3 23.3733 3.5 23.08C3.71333 22.7867 3.88667 22.46 4.02 22.1L4.34 21.22L0 10.42Z" fill="rgb(255,255,255)" fill-opacity="0.800000012" fill-rule="nonzero" transform="matrix(0.403048,-0.915179,0.914741,0.404041,4.72266,52.4949)" />
	<path id="Icon Part 15" d="M10.74 10.42L10.74 19.34L12.32 19.34L12.32 25.1L10 25.1L10 21.26L2.62 21.26L2.62 25.1L0.32 25.1L0.32 19.34L1.22 19.34C1.75333 18.5667 2.2 17.7 2.56 16.74C2.92 15.7667 3.2 14.74 3.4 13.66C3.6 12.58 3.73333 11.5 3.8 10.42L10.74 10.42ZM5.94 12.34C5.86 13.18 5.72667 14.02 5.54 14.86C5.35333 15.6867 5.12 16.48 4.84 17.24C4.56 18 4.22667 18.7 3.84 19.34L8.24 19.34L8.24 12.34L5.94 12.34Z" fill="rgb(255,255,255)" fill-opacity="0.800000012" fill-rule="nonzero" transform="matrix(0.651547,-0.758608,0.75766,0.65265,15.3145,32.5178)" />
	<path id="Icon Part 14" d="M4.04 15.58C4.04 15.7667 4.02667 16.0067 4 16.3C3.98667 16.58 3.97333 16.88 3.96 17.2C3.94667 17.5067 3.92667 17.7867 3.9 18.04C3.88667 18.28 3.87333 18.46 3.86 18.58L9.16 10.42L12.2 10.42L12.2 21.26L9.78 21.26L9.78 16.16C9.78 15.8533 9.78667 15.5 9.8 15.1C9.82667 14.7 9.85333 14.32 9.88 13.96C9.90667 13.5867 9.92667 13.3067 9.94 13.12L4.66 21.26L1.62 21.26L1.62 10.42L4.04 10.42L4.04 15.58Z" fill="rgb(255,255,255)" fill-opacity="0.800000012" fill-rule="nonzero" transform="matrix(0.843971,-0.536388,0.535265,0.844684,31.4668,16.0178)" />
	<path id="Icon Part 13" d="M2.9 21.26L0.12 21.26L3.1 16.88C2.71333 16.7333 2.34667 16.5333 2 16.28C1.65333 16.0133 1.37333 15.6733 1.16 15.26C0.946667 14.8333 0.84 14.32 0.84 13.72C0.84 12.6533 1.22667 11.84 2 11.28C2.77333 10.7067 3.78 10.42 5.02 10.42L10 10.42L10 21.26L7.48 21.26L7.48 17.12L5.46 17.12L2.9 21.26ZM3.3 13.74C3.3 14.2467 3.49333 14.64 3.88 14.92C4.28 15.1867 4.81333 15.32 5.48 15.32L7.48 15.32L7.48 12.28L5.12 12.28C4.48 12.28 4.01333 12.42 3.72 12.7C3.44 12.98 3.3 13.3267 3.3 13.74Z" fill="rgb(255,255,255)" fill-opacity="0.800000012" fill-rule="nonzero" transform="matrix(0.96353,-0.267602,0.266872,0.963732,53.0391,4.42029)" />
	<path id="Empty Text" d="" fill="rgb(255,255,255)" fill-opacity="0.800000012" fill-rule="nonzero" transform="matrix(0.999701,0.0244709,-0.0243991,0.999702,81.8574,0)" />
	<path id="Icon Part 12" d="M11.2 10.42L11.2 21.26L8.68 21.26L8.68 12.38L4.14 12.38L4.14 21.26L1.62 21.26L1.62 10.42L11.2 10.42Z" fill="rgb(255,255,255)" fill-opacity="0.800000012" fill-rule="nonzero" transform="matrix(0.949288,0.314409,-0.313576,0.949563,99.0781,2.06592)" />
	<path id="Icon Part 11" d="M6.0791 18.2002C5.2946 18.2002 4.58496 18.0732 3.9502 17.8193C3.31543 17.5654 2.76855 17.196 2.30957 16.7109C1.85059 16.2227 1.50065 15.6318 1.25977 14.9385C1.01888 14.2451 0.898438 13.4525 0.898438 12.5605C0.898438 11.3854 1.1084 10.3812 1.52832 9.54785C1.94824 8.71452 2.55208 8.07487 3.33984 7.62891C4.1276 7.18294 5.06022 6.95996 6.1377 6.95996C7.19238 6.95996 8.10547 7.18294 8.87695 7.62891C9.65169 8.07487 10.2523 8.71452 10.6787 9.54785C11.1051 10.3812 11.3184 11.3854 11.3184 12.5605C11.3184 13.4395 11.1979 14.2321 10.957 14.9385C10.7194 15.6449 10.3695 16.2389 9.90723 16.7207C9.44824 17.1992 8.89486 17.5654 8.24707 17.8193C7.60254 18.0732 6.87988 18.2002 6.0791 18.2002ZM6.11816 16.2178C7.01335 16.2178 7.6709 15.9118 8.09082 15.2998C8.51074 14.6878 8.7207 13.7747 8.7207 12.5605C8.7207 11.3464 8.51074 10.4365 8.09082 9.83105C7.6709 9.22233 7.00684 8.91797 6.09863 8.91797C5.19368 8.91797 4.53451 9.22233 4.12109 9.83105C3.70768 10.4365 3.50098 11.3464 3.50098 12.5605C3.50098 13.7747 3.71094 14.6878 4.13086 15.2998C4.55078 15.9118 5.21322 16.2178 6.11816 16.2178Z" fill="rgb(255,255,255)" fill-opacity="0.800000012" fill-rule="nonzero" transform="matrix(0.816747,0.576996,-0.575864,0.817545,120.857,11.0107)" />
	<path id="Icon Part 10" d="M10.78 21.26L8.26 21.26L8.26 12.36L5.36 12.36C5.22667 14 5.06 15.3933 4.86 16.54C4.66 17.6867 4.41333 18.6267 4.12 19.36C3.82667 20.08 3.46 20.6067 3.02 20.94C2.59333 21.2733 2.07333 21.44 1.46 21.44C1.18 21.44 0.92 21.42 0.68 21.38C0.44 21.34 0.233333 21.2733 0.06 21.18L0.06 19.2C0.18 19.24 0.306667 19.28 0.44 19.32C0.573333 19.3467 0.713333 19.36 0.86 19.36C1.08667 19.36 1.29333 19.2733 1.48 19.1C1.68 18.9133 1.86 18.6133 2.02 18.2C2.19333 17.7733 2.35333 17.2133 2.5 16.52C2.64667 15.8267 2.77333 14.98 2.88 13.98C3 12.9667 3.10667 11.78 3.2 10.42L10.78 10.42L10.78 21.26Z" fill="rgb(255,255,255)" fill-opacity="0.800000012" fill-rule="nonzero" transform="matrix(0.613723,0.789521,-0.788645,0.614848,139.1,25.9099)" />
	<path id="Icon Part 9" d="M4.14 10.42L4.14 14.72L8.92 14.72L8.92 10.42L11.44 10.42L11.44 21.26L8.92 21.26L8.92 16.66L4.14 16.66L4.14 21.26L1.62 21.26L1.62 10.42L4.14 10.42Z" fill="rgb(255,255,255)" fill-opacity="0.800000012" fill-rule="nonzero" transform="matrix(0.35791,0.933756,-0.933403,0.358828,152.059,45.0292)" />
	<path id="Icon Part 8" d="M11.3 15.82C11.3 16.7267 11.18 17.5267 10.94 18.22C10.7 18.9133 10.3533 19.5067 9.9 20C9.46 20.48 8.91333 20.8467 8.26 21.1C7.62 21.34 6.90667 21.46 6.12 21.46C5.37333 21.46 4.68667 21.34 4.06 21.1C3.43333 20.8467 2.88667 20.48 2.42 20C1.96667 19.5067 1.61333 18.9133 1.36 18.22C1.10667 17.5267 0.98 16.7267 0.98 15.82C0.98 14.62 1.18667 13.6067 1.6 12.78C2.01333 11.94 2.60667 11.3067 3.38 10.88C4.16667 10.44 5.09333 10.22 6.16 10.22C7.17333 10.22 8.06 10.44 8.82 10.88C9.59333 11.3067 10.2 11.94 10.64 12.78C11.08 13.6067 11.3 14.62 11.3 15.82ZM3.56 15.82C3.56 16.58 3.64667 17.2333 3.82 17.78C4.00667 18.3133 4.28667 18.72 4.66 19C5.04667 19.28 5.54 19.42 6.14 19.42C6.75333 19.42 7.24667 19.28 7.62 19C8.00667 18.72 8.28667 18.3133 8.46 17.78C8.63333 17.2333 8.72 16.58 8.72 15.82C8.72 15.0467 8.62667 14.4 8.44 13.88C8.26667 13.3467 7.98667 12.9467 7.6 12.68C7.22667 12.4 6.74 12.26 6.14 12.26C5.23333 12.26 4.57333 12.5667 4.16 13.18C3.76 13.7933 3.56 14.6733 3.56 15.82Z" fill="rgb(255,255,255)" fill-opacity="0.800000012" fill-rule="nonzero" transform="matrix(0.0713921,0.997448,-0.997433,0.0716013,159.111,68.0201)" />
	<path id="Icon Part 7" d="M8.78 10.42L8.78 12.36L4.14 12.36L4.14 21.26L1.62 21.26L1.62 10.42L8.78 10.42Z" fill="rgb(255,255,255)" fill-opacity="0.800000012" fill-rule="nonzero" transform="matrix(-0.22124,0.975219,-0.975079,-0.22186,158.834,92.9949)" />
	<path id="Icon Part 6" d="M11.3 15.82C11.3 16.7267 11.18 17.5267 10.94 18.22C10.7 18.9133 10.3533 19.5067 9.9 20C9.46 20.48 8.91333 20.8467 8.26 21.1C7.62 21.34 6.90667 21.46 6.12 21.46C5.37333 21.46 4.68667 21.34 4.06 21.1C3.43333 20.8467 2.88667 20.48 2.42 20C1.96667 19.5067 1.61333 18.9133 1.36 18.22C1.10667 17.5267 0.98 16.7267 0.98 15.82C0.98 14.62 1.18667 13.6067 1.6 12.78C2.01333 11.94 2.60667 11.3067 3.38 10.88C4.16667 10.44 5.09333 10.22 6.16 10.22C7.17333 10.22 8.06 10.44 8.82 10.88C9.59333 11.3067 10.2 11.94 10.64 12.78C11.08 13.6067 11.3 14.62 11.3 15.82ZM3.56 15.82C3.56 16.58 3.64667 17.2333 3.82 17.78C4.00667 18.3133 4.28667 18.72 4.66 19C5.04667 19.28 5.54 19.42 6.14 19.42C6.75333 19.42 7.24667 19.28 7.62 19C8.00667 18.72 8.28667 18.3133 8.46 17.78C8.63333 17.2333 8.72 16.58 8.72 15.82C8.72 15.0467 8.62667 14.4 8.44 13.88C8.26667 13.3467 7.98667 12.9467 7.6 12.68C7.22667 12.4 6.74 12.26 6.14 12.26C5.23333 12.26 4.57333 12.5667 4.16 13.18C3.76 13.7933 3.56 14.6733 3.56 15.82Z" fill="rgb(255,255,255)" fill-opacity="0.800000012" fill-rule="nonzero" transform="matrix(-0.494909,0.868945,-0.868317,-0.496009,152.352,114.162)" />
	<path id="Empty Text" d="" fill="rgb(255,255,255)" fill-opacity="0.800000012" fill-rule="nonzero" transform="matrix(-0.72607,0.687621,-0.686554,-0.727078,134.773,138.052)" />
	<path id="Icon Part 5" d="M13.02 25.1L10.7 25.1L10.7 21.26L1.62 21.26L1.62 10.42L4.14 10.42L4.14 19.3L8.94 19.3L8.94 10.42L11.46 10.42L11.46 19.36L13.02 19.36L13.02 25.1Z" fill="rgb(255,255,255)" fill-opacity="0.800000012" fill-rule="nonzero" transform="matrix(-0.894672,0.446724,-0.445673,-0.895196,121.529,148.525)" />
	<path id="Icon Part 4" d="M4.04 15.58C4.04 15.7667 4.02667 16.0067 4 16.3C3.98667 16.58 3.97333 16.88 3.96 17.2C3.94667 17.5067 3.92667 17.7867 3.9 18.04C3.88667 18.28 3.87333 18.46 3.86 18.58L9.16 10.42L12.2 10.42L12.2 21.26L9.78 21.26L9.78 16.16C9.78 15.8533 9.78667 15.5 9.8 15.1C9.82667 14.7 9.85333 14.32 9.88 13.96C9.90667 13.5867 9.92667 13.3067 9.94 13.12L4.66 21.26L1.62 21.26L1.62 10.42L4.04 10.42L4.04 15.58Z" fill="rgb(255,255,255)" fill-opacity="0.800000012" fill-rule="nonzero" transform="matrix(-0.985956,0.167007,-0.166531,-0.986036,99.8242,157.68)" />
	<path id="Icon Part 3" d="M8.66211 18L4.94141 12.5605L4.92188 12.3994L8.66211 7.16016L11.2793 7.16016L7.24121 12.7998L7.1582 11.6377L11.5576 18L8.66211 18ZM1.64062 18L1.64062 7.16016L4.16016 7.16016L4.16016 18L1.64062 18ZM3.8623 13.459L3.8623 11.4814L5.96191 11.4814L5.96191 13.459L3.8623 13.459Z" fill="rgb(255,255,255)" fill-opacity="0.800000012" fill-rule="nonzero" transform="matrix(-0.991871,-0.127249,0.126881,-0.991918,75.4531,160)" />
	<path id="Icon Part 2" d="M1.3623 18.1416C1.12142 18.1416 0.893555 18.1237 0.678711 18.0879C0.467122 18.0553 0.253906 18.013 0.0390625 17.9609L0.0390625 15.9004C0.185547 15.9395 0.315755 15.9655 0.429688 15.9785C0.54362 15.9915 0.660807 15.998 0.78125 15.998C1.0612 15.998 1.2972 15.9362 1.48926 15.8125C1.68457 15.6855 1.84082 15.4756 1.95801 15.1826C2.07845 14.8864 2.15983 14.4795 2.20215 13.9619C2.24121 13.5192 2.27702 13.0781 2.30957 12.6387C2.34212 12.1992 2.37142 11.724 2.39746 11.2129C2.42676 10.6986 2.45768 10.111 2.49023 9.4502C2.52279 8.78939 2.55859 8.02604 2.59766 7.16016L10.6396 7.16016L10.6396 18L8.08105 18L8.08105 9.18164L4.7998 9.18164C4.76074 9.72852 4.72982 10.2347 4.70703 10.7002C4.6875 11.1657 4.66471 11.6051 4.63867 12.0186C4.61263 12.432 4.58659 12.8324 4.56055 13.2197C4.53451 13.6071 4.50033 13.988 4.45801 14.3623C4.32454 15.7067 4.01855 16.6735 3.54004 17.2627C3.06152 17.8486 2.33561 18.1416 1.3623 18.1416Z" fill="rgb(255,255,255)" fill-opacity="0.800000012" fill-rule="nonzero" transform="matrix(-0.911893,-0.410427,0.409424,-0.912344,52.8438,155.442)" />
	<path id="Icon Part 1" d="M4.30176 18.2002C3.56608 18.2002 2.93783 18.0732 2.41699 17.8193C1.89941 17.5654 1.50391 17.1927 1.23047 16.7012C0.957031 16.2064 0.820312 15.6188 0.820312 14.9385C0.820312 13.8057 1.23372 12.9398 2.06055 12.3408C2.88737 11.7419 4.13411 11.4147 5.80078 11.3594L7.62207 11.3008L7.62207 10.8418C7.62207 10.1615 7.44792 9.66829 7.09961 9.3623C6.75456 9.05306 6.20117 8.89844 5.43945 8.89844C4.96094 8.89844 4.47103 8.95866 3.96973 9.0791C3.46842 9.19954 2.91829 9.38021 2.31934 9.62109L1.55762 7.81934C2.25098 7.52637 2.93783 7.3099 3.61816 7.16992C4.2985 7.02995 4.99186 6.95996 5.69824 6.95996C7.2054 6.95996 8.32194 7.2806 9.04785 7.92188C9.77702 8.5599 10.1416 9.54622 10.1416 10.8809L10.1416 18L8.33984 18L7.8418 16.501L7.75879 16.501C7.4528 16.8883 7.12891 17.209 6.78711 17.4629C6.44857 17.7135 6.07585 17.8991 5.66895 18.0195C5.26204 18.14 4.80631 18.2002 4.30176 18.2002ZM5.12207 16.3008C5.82845 16.3008 6.41764 16.0876 6.88965 15.6611C7.36165 15.2347 7.59766 14.6081 7.59766 13.7812L7.59766 12.9023L6.29883 12.9414C5.28646 12.9805 4.55241 13.153 4.09668 13.459C3.64421 13.765 3.41797 14.2061 3.41797 14.7822C3.41797 15.2868 3.56771 15.666 3.86719 15.9199C4.16992 16.1738 4.58822 16.3008 5.12207 16.3008Z" fill="rgb(255,255,255)" fill-opacity="0.800000012" fill-rule="nonzero" transform="matrix(-0.753085,-0.657923,0.656825,-0.754043,31.7383,143.988)" />
	<path id="Empty Text" d="" fill="rgb(255,255,255)" fill-opacity="0.800000012" fill-rule="nonzero" transform="matrix(-0.529359,-0.848398,0.847697,-0.53048,12.1875,122.325)" />
</svg>
