<svg viewBox="0 0 177.344 44.0963" xmlns="http://www.w3.org/2000/svg" xmlns:xlink="http://www.w3.org/1999/xlink" width="177.343750" height="44.096252" fill="none" customFrame="#000000">
	<path id="Group 12 (Traced)" d="M3.48371 0.427663C2.81999 0.685012 2.08645 1.17784 1.53258 1.73875C-0.125764 3.41804 0.00264642 1.71306 0.00264642 22.0434C0.00264642 42.4393 -0.13718 40.6808 1.61592 42.3248C2.40613 43.066 2.90875 43.3517 3.9991 43.6802C5.37103 44.0933 5.501 44.0963 21.9527 44.0963C38.2954 44.0963 38.5435 44.0908 39.9083 43.6882C41.1187 43.3312 41.4417 43.1298 42.4875 42.0811C43.4141 41.1522 43.7092 40.7153 43.7989 40.1402C43.8628 39.7319 44.0426 38.9589 44.1989 38.4224C44.6284 36.9475 44.6228 6.95169 44.1929 5.74338C44.0333 5.29503 43.902 4.65857 43.9011 4.32892C43.8999 3.99947 43.6371 3.27671 43.3168 2.72308C42.6954 1.64862 41.8536 1.00928 40.2194 0.370511C39.2747 0.00117198 38.7543 -0.0091818 21.8972 0.00289937C4.617 0.0151723 4.54312 0.0169034 3.48371 0.427663ZM22.968 6.85408C23.1548 7.08976 23.2098 9.60187 23.2098 17.9204C23.2098 29.8802 23.2616 29.4071 21.9527 29.4071C20.6448 29.4071 20.6957 29.8662 20.6957 18.0608L20.6957 7.43973L21.2745 6.86578C21.8949 6.2506 22.4863 6.24637 22.968 6.85408ZM15.4942 7.65144L16.0645 8.21695L16.0111 18.0234L15.9575 27.8297L15.4149 28.2924C14.739 28.8689 14.2309 28.8807 13.8412 28.3288C13.578 27.9564 13.5401 26.6448 13.5401 17.9204C13.5401 9.1961 13.578 7.88443 13.8412 7.51203C14.2524 6.92983 14.8142 6.97719 15.4942 7.65144ZM30.3854 7.65144L30.9557 8.21695L30.9023 18.0234L30.8488 27.8297L30.3061 28.2924C30.0077 28.5469 29.5993 28.7551 29.3983 28.7551C29.1974 28.7551 28.789 28.5469 28.4906 28.2924L27.9479 27.8297L27.8943 18.0234L27.8409 8.21695L28.4113 7.65144C28.7251 7.3402 29.1692 7.08573 29.3983 7.08573C29.6275 7.08573 30.0715 7.3402 30.3854 7.65144ZM7.73081 9.95817C8.4247 10.3264 8.51192 11.173 8.51192 17.5369C8.51192 23.9008 8.4247 24.7475 7.73081 25.1156C7.17055 25.4129 6.78938 25.3387 6.27921 24.8326L5.80443 24.362L5.80443 17.6562L5.80443 10.9504L6.30512 10.3605C6.83231 9.73918 7.14947 9.64962 7.73081 9.95817ZM37.6262 10.2412L38.101 10.7118L38.101 17.5369L38.101 24.362L37.6262 24.8326C36.8577 25.5949 35.9768 25.3713 35.6072 24.32C35.3235 23.5129 35.3132 11.5441 35.5956 10.7897C36.0017 9.70485 36.8534 9.47493 37.6262 10.2412ZM67.7642 14.3555C66.299 15.0165 66.3363 14.8152 66.3363 22.0649C66.3363 28.0533 66.3622 28.5525 66.6929 28.9577C66.9341 29.253 67.2569 29.3943 67.6901 29.3943C68.1233 29.3943 68.4461 29.253 68.6872 28.9577C69.0079 28.5651 69.0442 28.121 69.0467 24.563C69.0485 22.3862 69.1266 20.4847 69.2206 20.3374C69.5528 19.8174 70.0413 20.33 70.7996 21.9939C71.2205 22.9176 71.6647 23.846 71.7869 24.0569C71.9089 24.2679 72.3145 25.0445 72.6881 25.7828C74.3967 29.1603 75.5443 29.9961 77.5301 29.3097C78.6767 28.9134 78.7135 28.6765 78.7135 21.6953C78.7135 15.6001 78.6997 15.3659 78.3126 14.8781C77.8223 14.2598 76.9493 14.2044 76.3928 14.7563C76.0294 15.1166 76.0058 15.3976 76.0031 19.4066C76.0013 21.7532 75.9232 23.7938 75.8292 23.9411C75.5556 24.3697 75.0694 24.0385 74.671 23.1522C72.0681 17.3612 71.1628 15.7008 70.1073 14.7818C69.7277 14.4514 69.3403 14.181 69.2463 14.181C69.1523 14.181 68.9595 14.1394 68.818 14.0886C68.6762 14.0378 68.202 14.1578 67.7642 14.3555ZM83.1685 14.3423C82.2771 14.8163 82.0665 15.1809 82.3013 15.8429C82.5979 16.6797 83.6194 17.2493 84.8229 17.2493C86.459 17.2493 86.4492 17.214 86.4492 23.0544C86.4492 27.1081 86.5025 28.1093 86.7427 28.5701C87.245 29.5331 88.5548 29.5981 89.234 28.6938C89.6166 28.1843 89.6458 27.8542 89.7368 23.0175C89.8115 19.058 89.8943 17.8098 90.0989 17.5659C90.2747 17.3563 90.6628 17.2493 91.2467 17.2493C92.3306 17.2493 93.7525 16.5998 94.0404 15.9727C94.2135 15.5961 94.181 15.4175 93.8613 14.9905C93.1554 14.0476 92.8576 13.9952 88.1866 13.9921C84.3236 13.9896 83.7575 14.0291 83.1685 14.3423ZM98.5695 14.3935C97.3275 15.0432 97.2792 15.323 97.2792 21.8516C97.2792 28.036 97.3513 28.5724 98.2687 29.2094C98.653 29.4764 99.3645 29.5222 103.124 29.5222C107.271 29.5222 107.552 29.4998 107.916 29.1387C108.356 28.7018 108.394 28.3962 108.088 27.7305C107.733 26.9585 107.147 26.8375 103.76 26.8375C100.051 26.8375 99.9867 26.8045 99.9867 24.9198C99.9867 23.0523 100.08 23.0022 103.549 23.0022C106.252 23.0022 106.554 22.9675 107.019 22.6047C107.86 21.949 107.617 20.9028 106.537 20.5294C106.2 20.4128 104.843 20.3175 103.521 20.3175C101.122 20.3175 101.116 20.3164 100.552 19.757C99.9128 19.1232 99.8141 18.346 100.288 17.6756C100.576 17.2681 100.714 17.2493 103.418 17.2493C105.895 17.2493 106.351 17.1992 107.084 16.8471C108.147 16.3372 108.416 15.8757 108.098 15.1134C107.675 14.0997 107.17 13.9883 103.042 13.9977C99.6809 14.0054 99.2361 14.0447 98.5695 14.3935ZM113.814 14.1722C113.285 14.3893 112.625 15.1251 112.377 15.7755C112.247 16.1148 112.17 18.4748 112.17 22.1233C112.17 27.8523 112.176 27.9401 112.612 28.5804C113.201 29.4472 113.912 29.6913 114.581 29.2562C115.287 28.7979 115.458 28.2199 115.458 26.2923C115.458 24.2648 115.711 23.7693 116.748 23.7693C117.669 23.7693 118.396 24.5699 119.739 27.0653C120.866 29.1582 121.396 29.714 122.262 29.714C122.864 29.714 123.774 28.9784 123.774 28.492C123.774 28.0197 123.063 26.5357 122.334 25.4836C121.21 23.8644 121.221 23.6805 122.498 22.5696C124.509 20.8201 125.046 18.8921 124.065 16.9405C123.404 15.6243 122.744 15.0605 121.188 14.4827C119.976 14.0322 119.614 13.9904 117.031 14.0013C115.474 14.0081 114.027 14.0849 113.814 14.1722ZM131.316 14.5243C130.078 15.1203 128.801 16.315 128.242 17.4011C126.752 20.2979 127.346 26.2123 129.309 28.022C130.118 28.7682 132.561 29.9406 133.532 30.0492C134.122 30.1151 134.821 29.9936 135.899 29.6375C137.14 29.2277 137.597 28.9607 138.317 28.2245C139.763 26.7453 140.199 25.4965 139.487 24.8763C138.585 24.0905 137.462 24.3919 136.818 25.5935C136.308 26.5456 135.661 26.8375 134.062 26.8375C132.406 26.8375 131.658 26.3999 130.947 25.0157C130.559 24.2604 130.439 23.7027 130.383 22.3884C130.257 19.4409 131.235 17.4936 133.158 16.8644C134.619 16.3861 135.803 16.9196 136.836 18.522C137.526 19.5903 138.072 19.8833 138.961 19.662C139.261 19.5874 139.572 19.2873 139.765 18.8852C140.056 18.279 140.056 18.1682 139.761 17.4017C139.269 16.124 138.346 15.1554 137.035 14.5406C136.004 14.0564 135.65 13.991 134.12 14.001C132.644 14.0107 132.219 14.0899 131.316 14.5243ZM146.884 14.3962C145.392 15.1818 144.515 16.0571 143.802 17.4702L143.113 18.835L143.113 22.0434L143.113 25.2518L143.801 26.6149C144.659 28.3152 145.41 28.9373 147.42 29.6121C149.509 30.3138 150.652 30.226 152.709 29.2054C154.41 28.3613 154.965 27.7649 155.648 26.0459C156.087 24.9419 156.135 24.5465 156.149 21.9475C156.162 19.3612 156.118 18.9491 155.703 17.8619C155.154 16.4239 154.066 15.2346 152.686 14.5651C151.881 14.1743 151.38 14.0871 149.689 14.0424C147.926 13.9958 147.556 14.0424 146.884 14.3962ZM162.079 14.517C161.715 14.7013 161.236 15.0957 161.016 15.3932C160.636 15.9067 160.612 16.2229 160.554 21.6205C160.52 24.7478 160.543 27.5679 160.606 27.887C160.865 29.201 162.077 29.8946 162.822 29.1554C163.185 28.796 163.226 28.53 163.226 26.5537C163.226 24.9762 163.314 24.1334 163.538 23.5796C163.713 23.1462 163.801 22.5761 163.738 22.2814C163.374 20.5593 163.372 20.5093 163.664 20.5093C164.02 20.5093 164.298 20.8393 164.471 21.4681C164.544 21.7318 164.684 22.1201 164.781 22.331C164.878 22.542 165.174 23.3618 165.439 24.1528C166.797 28.2146 167.062 28.7222 168.1 29.2545C168.734 29.5799 169.682 29.504 170.265 29.0811C170.461 28.9389 171.151 27.2111 171.915 24.9463C173.152 21.2832 173.652 20.2373 174.003 20.5841C174.085 20.6654 174.196 22.481 174.249 24.6188C174.35 28.6729 174.398 28.8963 175.266 29.3569C175.529 29.4963 175.806 29.4854 176.21 29.3195C177.291 28.8754 177.344 28.5567 177.344 22.424C177.344 17.1388 177.322 16.7898 176.929 15.8841C176.615 15.1621 176.332 14.8357 175.776 14.5542C174.82 14.0706 174.548 14.0832 173.558 14.6587C172.484 15.2829 172.021 16.063 171.249 18.5529C170.104 22.2443 169.315 24.2441 168.978 24.3083C168.563 24.3875 168.06 23.3867 167.405 21.1804C166.752 18.9817 165.693 15.9318 165.399 15.4035C165.159 14.9728 163.659 14.1808 163.083 14.1814C162.896 14.1814 162.444 14.3325 162.079 14.517ZM58.9874 14.7563C58.6155 15.1251 58.6006 15.3955 58.6006 21.8088C58.6006 29.0424 58.6153 29.1481 59.6637 29.4091C60.1565 29.5316 60.8935 29.2664 61.1602 28.8702C61.2383 28.7542 61.3035 25.6721 61.3052 22.0213C61.3081 15.594 61.2954 15.3673 60.9072 14.8781C60.417 14.2598 59.544 14.2044 58.9874 14.7563ZM151.053 17.0805C152.164 17.5542 152.57 18.1197 153.151 20.002C153.659 21.6485 153.659 22.2499 153.15 23.8834C152.398 26.2961 151.563 26.9316 149.31 26.8053C148.089 26.737 147.892 26.6674 147.295 26.0936C145.852 24.7068 145.38 21.7203 146.24 19.4237C146.749 18.0658 147.221 17.5022 148.238 17.0364C149.248 16.5744 149.891 16.5846 151.053 17.0805ZM120.959 17.6756C121.131 17.9191 121.26 18.5003 121.26 19.0325C121.26 19.8059 121.164 20.0584 120.695 20.524C120.141 21.0725 120.086 21.0846 118.095 21.0846C116.212 21.0846 116.038 21.0529 115.759 20.6583C115.574 20.3967 115.458 19.8206 115.458 19.1669C115.458 18.5132 115.574 17.9371 115.759 17.6756C116.042 17.2757 116.203 17.2493 118.359 17.2493C120.515 17.2493 120.676 17.2757 120.959 17.6756ZM8.25916 31.2859C8.66412 31.5177 9.25649 31.8936 9.57558 32.1214C10.5938 32.8482 15.1066 34.5081 16.0643 34.5081C16.3511 34.5081 16.9558 34.6375 17.408 34.7957C18.0296 35.0132 19.1381 35.0834 21.9527 35.0834C24.7674 35.0834 25.8759 35.0132 26.4974 34.7957C26.9496 34.6375 27.635 34.5075 28.0206 34.5067C29.2038 34.5044 33.5812 32.8056 34.606 31.9509C35.1545 31.4937 36.3758 30.8646 36.7154 30.8646C37.9552 30.8646 38.3364 32.423 37.3255 33.3592C36.1721 34.4277 29.9019 37.001 28.4522 37.001C28.1742 37.001 27.3379 37.1736 26.5941 37.3846C25.48 37.7004 24.6618 37.7681 21.9527 37.7681C19.2437 37.7681 18.4254 37.7004 17.3113 37.3846C16.5675 37.1736 15.7313 37.001 15.4532 37.001C14.7779 37.001 11.1846 35.8109 9.7537 35.1135C9.12382 34.8065 8.42199 34.4985 8.19379 34.4293C7.58035 34.2429 5.99782 32.4854 5.99782 31.9906C5.99782 31.4228 6.53449 30.8646 7.08044 30.8646C7.32372 30.8646 7.85419 31.0542 8.25916 31.2859Z" fill="rgb(255,255,255)" fill-rule="evenodd" />
</svg>
