<svg width="107" height="28" viewBox="0 0 107 28" fill="none" xmlns="http://www.w3.org/2000/svg">
<path d="M40.0702 28V21.6023H40.7918L44.7693 6.81279H36.5241V4.23256C39.4929 4.23256 38.2971 2.84884 38.2971 0H56.026L52.719 6.81279L49.3889 21.6023H56.1512V28H40.0702Z" fill="#FE733E"/>
<path d="M40.0702 28V21.6023H34.1312L32.3943 28H40.0702Z" fill="#FE733E"/>
<path d="M56.026 0L52.719 6.81279H57.6238V0H56.026Z" fill="#FE733E"/>
<path d="M8.36654 28L0 0H8.58817L12.4667 17.2266H12.6883L17.2872 0H24.0469L28.6457 17.2813H28.8673L32.7459 0H41.334L32.9675 28H25.5983L20.7778 12.3594H20.5562L15.7357 28H8.36654Z" fill="white"/>
<path fill-rule="evenodd" clip-rule="evenodd" d="M66.9115 28H55.9962V0H66.8007C69.7188 0 72.2399 0.560547 74.3638 1.68164C76.497 2.79362 78.1408 4.39779 79.2951 6.49414C79.861 7.50929 80.2893 8.62253 80.58 9.83388C80.8766 8.54606 81.3235 7.37963 81.9208 6.3346C83.1163 4.24968 84.7253 2.6749 86.7478 1.61027C88.7792 0.536756 91.0534 0 93.5703 0C96.0692 0 98.3343 0.536756 100.366 1.61027C102.397 2.6749 104.011 4.24968 105.206 6.3346C106.402 8.41065 107 10.9658 107 14C107 17.0342 106.402 19.5938 105.206 21.6787C104.011 23.7548 102.397 25.3295 100.366 26.403C98.3343 27.4677 96.0692 28 93.5703 28C91.0534 28 88.7792 27.4632 86.7478 26.3897C84.7253 25.3074 83.1163 23.7281 81.9208 21.6521C81.3263 20.6075 80.8808 19.446 80.5841 18.1676C80.2958 19.382 79.8707 20.4993 79.3089 21.5195C78.1546 23.6068 76.5201 25.2109 74.4054 26.332C72.2907 27.444 69.7927 28 66.9115 28ZM99.2871 14.0001C99.2871 12.3677 99.0669 10.9925 98.6265 9.87462C98.195 8.74788 97.5523 7.89617 96.6984 7.31949C95.8534 6.73394 94.8107 6.44116 93.5703 6.44116C92.3298 6.44116 91.2826 6.73394 90.4287 7.31949C89.5837 7.89617 88.941 8.74788 88.5006 9.87462C88.0691 10.9925 87.8534 12.3677 87.8534 14.0001C87.8534 15.6325 88.0691 17.0121 88.5006 18.1389C88.941 19.2568 89.5837 20.1085 90.4287 20.694C91.2826 21.2707 92.3298 21.559 93.5703 21.559C94.8107 21.559 95.8534 21.2707 96.6984 20.694C97.5523 20.1085 98.195 19.2568 98.6265 18.1389C99.0669 17.0121 99.2871 15.6325 99.2871 14.0001ZM63.6979 21.5469H66.6345C68.0381 21.5469 69.234 21.3236 70.2221 20.877C71.2194 20.4303 71.9767 19.6602 72.4938 18.5664C73.0202 17.4727 73.2834 15.9505 73.2834 14C73.2834 12.0495 73.0156 10.5273 72.48 9.43359C71.9536 8.33984 71.1779 7.56966 70.1528 7.12305C69.137 6.67643 67.8904 6.45312 66.4128 6.45312H63.6979V21.5469Z" fill="white"/>
</svg>
