<svg viewBox="0 0 173.151 33.5132" xmlns="http://www.w3.org/2000/svg" xmlns:xlink="http://www.w3.org/1999/xlink" width="173.151276" height="33.513184" fill="none" customFrame="#000000">
	<path id="Group 12 (Traced)" d="M146.95 0.38293C146.363 0.589122 145.606 1.01333 145.217 1.35396C143.327 3.00997 143.495 4.99916 145.614 6.08356C146.163 6.36458 146.706 6.62714 146.82 6.66731C147.183 6.79511 146.5 7.39295 145.851 7.51524C144.865 7.70118 143.196 8.28347 142.736 8.60191C142.499 8.7668 142.257 9.0509 142.199 9.23344C142.041 9.73653 142.416 10.4636 143.02 10.8226C143.318 10.9993 143.602 11.3117 143.653 11.5168C143.704 11.722 143.724 14.3905 143.698 17.4468L143.651 23.0037L143.249 23.3178C142.53 23.8801 141.766 24.03 141.179 23.7239C140.895 23.5761 140.594 23.2718 140.51 23.0476C140.422 22.8141 140.356 20.0328 140.357 16.536C140.357 9.33063 140.378 9.44677 138.773 7.72726C137.97 6.86751 137.628 6.61531 137.165 6.54404C136.842 6.49432 136.21 6.3466 135.76 6.21573C134.629 5.88676 133.884 5.92013 132.468 6.36329C131.084 6.79673 130.658 7.0013 130.01 7.54407C129.758 7.7556 129.228 8.07696 128.833 8.25853C127.955 8.66136 127.656 8.49453 127.656 7.60287C127.656 6.49044 126.961 6.23452 125.258 6.71979C124.764 6.8607 123.89 7.10739 123.315 7.26791C122.74 7.42859 121.872 7.6717 121.386 7.80841C120.899 7.94495 120.265 8.10547 119.975 8.16475C119.11 8.34243 118.492 8.97866 118.492 9.69248C118.492 10.2918 118.86 10.837 119.265 10.837C119.366 10.837 119.562 11.0106 119.7 11.2226C119.918 11.5573 119.945 12.3624 119.905 17.2968L119.859 22.9851L119.175 23.6142C118.623 24.1223 118.492 24.351 118.492 24.8037C118.492 25.8956 118.516 25.9004 123.825 25.9004C128.218 25.9004 128.59 25.8784 128.836 25.6042C129.433 24.9399 129.09 24.0169 127.977 23.2891L127.575 23.0264L127.575 17.9166L127.575 12.8067L127.977 12.3674C128.593 11.6938 129.529 11.3305 130.657 11.3265C131.202 11.3245 131.771 11.3703 131.921 11.4285C132.071 11.4865 132.366 11.9055 132.576 12.3598C132.949 13.1674 132.958 13.2865 132.959 17.7694C132.961 22.8382 132.955 22.8694 131.927 23.6803C131.448 24.0575 131.353 24.2347 131.353 24.7485C131.353 25.9301 131.325 25.9242 136.759 25.8394C142.537 25.749 141.263 25.749 146.927 25.8394C152.32 25.9254 152.252 25.9401 152.252 24.6759C152.252 24.1264 152.139 23.8505 151.689 23.3089L151.127 22.6304L151.127 14.815C151.127 6.18917 151.183 6.65516 150.122 6.40135C149.879 6.3432 149.68 6.23776 149.68 6.1673C149.68 5.98735 150.213 5.43064 150.867 4.92804C151.471 4.46448 152.091 3.30961 152.091 2.65103C152.091 1.31994 150.339 -0.0385242 148.672 0.000835219C148.298 0.00974372 147.523 0.18176 146.95 0.38293ZM49.1736 1.9356C49.0245 2.02323 48.6493 2.51303 48.34 3.02405C48.0305 3.53508 47.4653 4.25505 47.0838 4.62419C46.2695 5.41202 44.0837 6.94963 43.7779 6.94963C43.2871 6.94963 41.9724 7.7731 41.9008 8.12523C41.6222 9.49471 41.632 9.67385 42 9.93349C42.1992 10.0741 42.5951 10.1891 42.88 10.1891C43.8952 10.1891 43.8983 10.2095 43.8983 17.0247C43.8983 22.339 43.9334 23.231 44.1654 23.832C44.6838 25.1746 45.1974 25.7579 46.4386 26.4139C47.6036 27.0295 47.6265 27.0342 49.4805 27.0342C51.1189 27.0342 51.4785 26.9821 52.4061 26.6104C53.7305 26.0794 54.9608 25.1866 55.0917 24.6615C55.2112 24.1817 54.7375 23.0332 54.3295 22.8131C54.1744 22.7295 53.6754 22.661 53.2207 22.661C52.5213 22.661 52.3216 22.5881 51.924 22.1875L51.4541 21.7141L51.4541 16.3115C51.4541 10.0546 51.4258 10.1891 52.7418 10.1891C54.2184 10.1891 54.5702 9.80683 54.7263 8.03242C54.8419 6.71687 54.5765 6.46371 53.0814 6.46371C51.6207 6.46371 51.5554 6.3735 51.4541 4.21829L51.3737 2.50672L50.8274 2.1366C50.2514 1.74625 49.6251 1.67013 49.1736 1.9356ZM91.6915 3.21048C90.6175 3.34201 90.0763 3.75277 89.4625 4.90262C88.7282 6.27809 88.5738 6.39666 87.8149 6.16747C87.4634 6.06137 86.2026 5.97893 84.9544 5.98022C83.0722 5.98233 82.5336 6.04194 81.5167 6.3607C79.717 6.92485 79.1162 7.29382 77.9244 8.5666C76.4289 10.1638 75.5685 12.1875 75.5685 14.1074C75.5685 15.3069 76.1929 16.9882 77.0513 18.1005C77.7866 19.0529 79.3945 20.3069 80.0934 20.4727C80.3274 20.5283 80.6521 20.722 80.8149 20.9034C81.1048 21.2262 81.1008 21.2424 80.6194 21.6757C80.3347 21.9319 79.5445 22.3055 78.7429 22.5627C77.9812 22.8071 77.2717 23.1118 77.1663 23.2397C76.957 23.494 77.0553 24.4838 77.3557 25.1484C77.6091 25.7088 78.1513 25.9004 79.4826 25.9004C81.0853 25.9004 81.2122 26.0802 80.3016 27.061C79.5194 27.9037 78.9445 29.0565 78.9445 29.7829C78.9445 30.3599 79.8282 31.695 80.5187 32.161C80.8097 32.3573 81.6297 32.742 82.3409 33.0156C83.5548 33.4827 83.7678 33.5132 85.8187 33.5132C87.7551 33.5132 88.1418 33.465 89.2212 33.0906C91.206 32.4017 92.3749 31.8066 93.1422 31.0939C94.1296 30.177 94.3781 29.5829 94.3763 28.1436C94.375 27.1178 94.3078 26.8357 93.8906 26.1029C93.6145 25.6176 93.1492 25.0894 92.8071 24.873C91.9962 24.3599 89.2232 23.1469 88.861 23.1469C88.4874 23.1469 86.9827 22.498 86.9827 22.3369C86.9827 22.0824 87.4518 21.8472 89.057 21.2972C89.9678 20.9852 91.0491 20.5118 91.4601 20.2452C92.4695 19.5905 93.9109 18.0621 94.452 17.0729C94.8782 16.2938 94.8941 16.1809 94.8689 14.1007C94.8481 12.3927 94.7775 11.7717 94.5326 11.146C94.0529 9.92005 93.493 9.13076 92.7424 8.62281C92.3645 8.36705 91.9492 7.9673 91.8195 7.73438C91.6084 7.35553 91.6126 7.26628 91.859 6.88727C92.0645 6.57126 92.27 6.46371 92.6685 6.46371C93.3167 6.46371 93.6038 6.15872 93.9536 5.09861C94.3071 4.027 94.2854 3.61493 93.8596 3.31448C93.49 3.05354 93.1181 3.03572 91.6915 3.21048ZM60.0753 5.30722C59.6818 5.74536 57.8846 10.2561 57.8846 10.8059C57.8846 11.3431 58.2166 11.6849 58.9937 11.9478C59.9187 12.2609 60.2502 12.1689 61.3 11.3088C62.576 10.2631 62.7768 10.1891 64.3336 10.1891C65.8049 10.1891 66.4346 10.4354 66.8042 11.1556C67.114 11.7592 67.1124 12.1302 66.7977 12.5826C66.556 12.9306 66.4563 12.9426 63.8187 12.9426C61.4839 12.9426 60.947 12.991 60.1016 13.2781C57.8334 14.0479 56.7765 14.9663 55.7875 17.0269C55.1568 18.341 55.1517 18.3669 55.1517 20.2686C55.1517 21.9786 55.1938 22.2684 55.5409 22.9498C56.0929 24.0334 57.7822 25.6463 58.7726 26.0354C59.8457 26.4571 61.4351 26.6104 62.6538 26.4098C63.6763 26.2416 65.6911 25.3603 66.4129 24.7657C66.8844 24.3772 67.3061 24.465 67.4629 24.984C67.7368 25.8912 67.7784 25.9004 71.5743 25.9004C74.9269 25.9004 75.1015 25.885 75.4237 25.5605C75.9227 25.0577 75.7225 23.9247 74.9902 23.1082L74.4432 22.498L74.4432 16.6563L74.4432 10.8145L73.9522 9.62606C73.318 8.09121 72.2551 7.04341 70.6652 6.38564C69.6101 5.94912 69.3944 5.91932 67.2088 5.90847C65.7031 5.90086 64.5484 5.97812 63.9476 6.12649C63.0555 6.34693 62.9996 6.34174 62.5811 6.00192C62.0987 5.61011 60.8659 5.00596 60.5488 5.00596C60.4372 5.00596 60.2242 5.14152 60.0753 5.30722ZM157.602 5.37039C157.419 5.57075 157.075 6.24505 156.836 6.86864C156.598 7.49224 156.193 8.52578 155.935 9.16541C155.179 11.0466 155.331 11.5911 156.719 11.9635C157.394 12.1447 157.433 12.1326 158.617 11.3712C160.472 10.1794 160.431 10.1941 161.916 10.1915C163.537 10.1886 164.02 10.4476 164.329 11.4862C164.488 12.0202 164.475 12.182 164.249 12.5304L163.98 12.9426L161.099 12.9426L158.218 12.9426L156.976 13.5133C155.07 14.3879 154.484 14.9584 153.543 16.8513L152.734 18.479L152.735 20.2056C152.735 21.7765 152.777 22.0197 153.199 22.9039C153.793 24.1479 155.263 25.6058 156.355 26.0354C158.34 26.8151 160.514 26.6338 162.783 25.4994C163.589 25.0964 164.352 24.7666 164.48 24.7666C164.607 24.7666 164.913 25.0217 165.16 25.3335L165.609 25.9004L169.114 25.9004C173.154 25.9004 173.151 25.9012 173.151 24.5305C173.151 23.8695 173.067 23.6591 172.589 23.1255L172.026 22.498L172.026 16.6989C172.026 11.2236 172.007 10.8417 171.685 9.85606C171.203 8.38422 169.99 7.14303 168.334 6.42775C167.134 5.90928 167.099 5.90458 164.551 5.91155C162.547 5.91721 161.824 5.97844 161.281 6.18917C160.527 6.48136 160.27 6.41933 159.726 5.8142C159.338 5.38189 158.645 5.00596 158.236 5.00596C158.071 5.00596 157.785 5.17003 157.602 5.37039ZM27.1573 5.32553C27.0128 5.41445 26.592 6.19872 26.2224 7.06868C25.8527 7.93863 25.3741 9.02839 25.1589 9.4905C24.5075 10.8891 24.6319 11.3606 25.7968 11.907C26.2475 12.1185 26.7084 12.2923 26.8208 12.2931C26.9333 12.2941 27.3312 12.0131 27.705 11.6687C28.921 10.5488 29.7997 10.1891 31.3198 10.1891C32.5985 10.1891 32.6718 10.2095 33.2248 10.7202C33.682 11.1423 33.8037 11.3789 33.8175 11.8728C33.8452 12.8524 33.6 12.9426 30.911 12.9426C29.0281 12.9426 28.3903 13.0053 27.4979 13.2784C25.8228 13.791 24.4044 14.6147 23.8775 15.3805C23.0022 16.6533 22.5169 16.4932 22.5169 14.9318C22.5169 14.4997 22.3722 13.7314 22.1954 13.2245C22.0185 12.7176 21.8738 12.1836 21.8738 12.038C21.8738 11.3754 20.8094 9.82659 19.4084 8.45079C17.9517 7.02041 17.917 6.99839 16.3229 6.49093C15.4363 6.20877 14.4511 5.97779 14.1341 5.97779C13.8169 5.97779 12.806 6.23792 11.8879 6.55587C9.51697 7.37691 9.57521 7.37028 9.00483 6.88662C8.4354 6.40395 7.90392 6.35794 6.92295 6.70667C6.54708 6.8403 6.05462 6.94963 5.82891 6.94963C5.45803 6.94963 4.78591 7.13606 2.58234 7.85052C2.18445 7.97945 1.69956 8.08473 1.50472 8.08425C0.631133 8.0823 0.0101273 8.7289 0.0101273 9.64048C0.0101273 10.2403 0.256249 10.6042 0.821329 10.84C1.09736 10.9552 1.3895 11.2251 1.47053 11.4397C1.55284 11.6577 1.61777 15.5369 1.61777 20.2314C1.61777 24.9258 1.55284 28.8051 1.47053 29.0231C1.3895 29.2377 1.09736 29.5076 0.821329 29.6227C0.0340751 29.9512 -0.212519 30.7381 0.191799 31.6318C0.515896 32.3487 0.910088 32.3964 6.10272 32.3458L10.9702 32.2984L11.358 31.8439C11.8394 31.2797 11.8869 30.2907 11.4517 29.8939C11.2892 29.7457 10.8907 29.6258 10.5603 29.6258C9.63145 29.6258 9.17362 29.0668 9.17362 27.9324C9.17362 26.6455 9.51585 26.3284 10.7513 26.4714C11.254 26.5297 11.9384 26.6468 12.272 26.732C12.6055 26.8172 12.9419 26.8473 13.0192 26.7992C13.0965 26.7511 13.7278 26.6324 14.4222 26.5354C17.1144 26.1594 19.6102 24.266 20.8772 21.6383C21.4589 20.4317 21.6194 20.2184 21.9132 20.2615C22.218 20.3061 22.2837 20.4729 22.4451 21.6145C22.6015 22.7224 22.7318 23.0687 23.3188 23.9349C24.0446 25.0062 24.7053 25.5193 26.0952 26.0908C26.7714 26.3687 27.2711 26.4372 28.6259 26.4372C30.4687 26.4372 31.209 26.227 32.766 25.2618C33.2052 24.9895 33.6564 24.7666 33.7685 24.7666C33.8807 24.7666 34.2527 25.0217 34.5953 25.3335L35.2181 25.9004L38.8099 25.9004C42.9082 25.9004 42.9337 25.8925 42.9337 24.611C42.9337 24.0154 42.8461 23.8307 42.3309 23.3414L41.728 22.769L41.6074 17.1674C41.4348 9.13658 41.5194 9.93252 40.7287 8.8933C40.3561 8.40333 39.9085 7.81424 39.7343 7.5844C39.2787 6.98316 37.4816 6.14576 36.2201 5.94702C34.9133 5.74099 31.7316 5.86052 30.677 6.15515C29.9217 6.3662 29.91 6.36345 29.3909 5.86214C28.8223 5.3129 27.6401 5.02896 27.1573 5.32553ZM105.149 6.22075C104.839 6.34077 104.366 6.4446 104.096 6.4514C103.384 6.46922 101.067 7.32297 100.326 7.84015C99.9763 8.08457 99.1266 8.8771 98.4382 9.60128C97.0126 11.1011 96.0765 12.809 95.8907 14.2494C95.8281 14.7334 95.6888 15.3844 95.5811 15.6962C95.4266 16.1437 95.4276 16.4336 95.586 17.0729C95.6963 17.5183 95.8381 18.2448 95.901 18.6873C95.964 19.1298 96.3239 20.1569 96.7011 20.9698C97.2655 22.1867 97.6077 22.6705 98.6395 23.7102C100.712 25.7989 103.354 26.8504 106.868 26.9852C108.943 27.0647 108.937 27.0658 111.981 26.0099C113.258 25.5669 115.041 24.322 115.997 23.2063C117.92 20.9621 119.005 16.8786 118.251 14.7243C118.118 14.3456 118.01 13.8715 118.01 13.6707C118.01 13.1279 117.25 11.5407 116.438 10.3846C115.168 8.57794 111.675 6.46371 109.961 6.46371C109.724 6.46371 109.222 6.35438 108.846 6.22075C108.004 5.92143 105.92 5.92143 105.149 6.22075ZM85.2971 8.90949C86.6671 9.63691 87.3996 10.6583 88.0735 12.7806C88.9571 15.5629 89.0904 16.8418 88.6026 17.8569C88.4165 18.2446 88.0808 18.646 87.8569 18.7487C87.3442 18.984 86.3783 18.9887 85.7243 18.7592C84.9554 18.4891 83.8914 16.8654 83.4517 15.2912C83.2527 14.5785 82.9444 13.4956 82.7668 12.8846C82.2141 10.9839 82.5157 9.79095 83.7658 8.93379C84.4183 8.48626 84.4976 8.48512 85.2971 8.90949ZM107.399 9.55431C107.797 9.73572 108.329 10.0804 108.58 10.3201C109.547 11.2413 110.933 14.6558 110.935 16.1212C110.936 16.5778 111.045 17.2611 111.177 17.6398C111.603 18.8556 111.417 20.3556 110.636 22C110.061 23.2128 108.716 23.6098 107.285 22.9895C106.835 22.7945 106.328 22.4767 106.158 22.2834C105.527 21.5644 104.695 19.9118 104.381 18.7539C104.202 18.0966 103.967 17.2308 103.857 16.83C103.747 16.4291 103.627 15.1171 103.59 13.9145C103.525 11.7753 103.533 11.7084 103.974 10.8371C104.758 9.28932 105.889 8.8656 107.399 9.55431ZM11.6768 10.6789C12.5923 10.9964 13.5158 11.7085 13.8765 12.3757C13.9728 12.5539 14.2562 13.2821 14.5064 13.9941C14.9334 15.2098 14.9609 15.4464 14.9595 17.8815C14.958 20.2691 14.9278 20.5385 14.578 21.2842C13.9264 22.6728 12.9857 23.3092 11.5861 23.3085C10.715 23.3082 9.9641 22.8374 9.54403 22.0282C9.18103 21.3286 9.17362 21.2157 9.17362 16.4101C9.17362 13.581 9.24062 11.3284 9.33194 11.0861C9.6197 10.324 10.3079 10.2045 11.6768 10.6789ZM34.0022 16.5421C34.1922 16.8154 34.2523 17.3318 34.251 18.6883C34.2497 20.2173 34.1955 20.591 33.8746 21.2842C33.4055 22.2982 33.1404 22.5196 32.2831 22.6142C30.9839 22.7575 29.9838 21.6516 29.8026 19.8713C29.5824 17.7053 30.8586 16.1949 32.917 16.1858C33.6 16.1827 33.7975 16.2477 34.0022 16.5421ZM66.637 16.5421C66.827 16.8154 66.887 17.3318 66.8857 18.6883C66.8845 20.2335 66.832 20.5874 66.497 21.3124C66.0025 22.3822 65.4935 22.7326 64.6076 22.6129C64.1307 22.5484 63.7796 22.3591 63.3682 21.9446C62.8287 21.401 62.7904 21.293 62.7332 20.1496C62.6512 18.5146 62.7886 17.9043 63.3957 17.2078C64.0283 16.4819 64.6542 16.1967 65.6323 16.1884C66.234 16.1834 66.4375 16.255 66.637 16.5421ZM164.22 16.5421C164.842 17.4364 164.259 21.5745 163.408 22.3126C162.748 22.8842 161.735 22.7345 160.957 21.9502C160.411 21.4002 160.373 21.2954 160.316 20.1496C160.234 18.5146 160.371 17.9043 160.979 17.2078C161.611 16.4819 162.237 16.1967 163.215 16.1884C163.817 16.1834 164.02 16.255 164.22 16.5421ZM87.0185 28.0244C88.0611 29.1287 88.2685 30.2886 87.5525 31.0099C87.1035 31.4624 86.6796 31.5092 86.0414 31.1767C85.4419 30.8644 85.2142 30.2894 85.2142 29.0872C85.2142 27.2889 85.9274 26.8689 87.0185 28.0244Z" fill="rgb(255,255,255)" fill-rule="evenodd" />
</svg>
