<svg viewBox="0 0 180.173 54.6794" xmlns="http://www.w3.org/2000/svg" xmlns:xlink="http://www.w3.org/1999/xlink" width="180.172974" height="54.679382" fill="none" customFrame="#000000">
	<path id="Group 12 (Traced)" d="M24.602 0.264731C24.2537 0.398245 23.5168 0.513743 22.9641 0.52131C21.2836 0.544193 16.077 2.4033 14.9692 3.37591C14.5338 3.75826 14.5727 4.11646 15.0597 4.20926C15.2836 4.25196 16.2807 4.42601 17.2756 4.59592C19.2029 4.92529 22.0531 5.73719 23.2452 6.29647C26.026 7.60116 27.2427 8.1026 27.6269 8.1026C28.0458 8.1026 29.6878 7.45556 31.476 6.58583C33.4291 5.63592 36.6457 4.74691 39.6591 4.32402C40.1301 4.2579 40.5749 4.14475 40.6474 4.07249C41.1002 3.62168 39.0156 2.4278 36.2559 1.55753C35.368 1.27753 34.3743 0.933019 34.0476 0.791758C33.721 0.650496 33.0189 0.535002 32.4876 0.535002C31.9563 0.535002 31.1754 0.41338 30.7524 0.264731C29.7481 -0.0882436 25.5222 -0.0882436 24.602 0.264731ZM8.41169 8.07449C7.81275 8.43972 6.71852 9.59216 6.2178 10.3851C6.0407 10.6657 5.56638 11.2956 5.16425 11.7846C3.25615 14.1041 0.542687 20.6378 0.542687 22.9126C0.542687 23.4628 0.420583 24.258 0.271344 24.6792C0.0946076 25.178 0 26.121 0 27.382C0 28.6429 0.0946076 29.5859 0.271344 30.0847C0.420583 30.5059 0.542687 31.4229 0.542687 32.1223C0.542687 33.1342 0.693358 33.8377 1.28037 35.5681C2.10634 38.0029 3.46619 40.8463 4.42946 42.1534C5.56314 43.6916 5.9696 43.4854 5.9696 41.3725C5.9696 39.2247 6.98316 36.3885 9.5499 31.3531C10.6845 29.1274 11.7718 27.1003 11.9665 26.8486C12.1609 26.5969 12.736 25.7423 13.2445 24.9495C13.7529 24.1567 14.3961 23.2461 14.6736 22.9257C14.9513 22.6055 15.6441 21.6326 16.2132 20.7635C16.7823 19.8947 17.539 18.8441 17.8949 18.4289C18.9911 17.1502 19.727 16.03 19.8397 15.4682C19.9381 14.9785 19.8125 14.8012 18.414 13.4538C16.142 11.2649 14.0474 9.72982 11.7167 8.54495C9.98388 7.66422 9.25467 7.56043 8.41169 8.07449ZM43.527 8.55954C42.6433 9.00224 41.5716 9.62765 41.1454 9.94963C38.9327 11.6213 38.3647 12.0916 36.9713 13.4048C35.8287 14.4817 35.4557 14.9484 35.4557 15.3008C35.4557 15.8605 36.4662 17.4513 37.4847 18.4953C37.8886 18.9093 38.3911 19.532 38.6012 19.879C38.8114 20.2261 39.7081 21.5899 40.5937 22.9099C43.1854 26.7719 43.757 27.667 43.9434 28.1547C44.04 28.4079 44.3982 29.0065 44.7394 29.485C45.4043 30.4178 47.7362 35.053 48.2136 36.391C49.1731 39.08 49.3795 39.953 49.3848 41.346C49.3942 43.7858 49.8824 43.8665 51.2883 41.66C52.2737 40.1135 54.2721 35.118 54.2701 34.2065C54.2696 33.9463 54.3967 33.3787 54.5528 32.9452C54.9713 31.7827 54.9739 23.3259 54.5562 22.1791C54.3981 21.7455 54.269 21.2239 54.269 21.0199C54.269 19.6992 51.5702 13.3853 50.4694 12.1309C50.1961 11.8194 49.6787 11.1239 49.3198 10.5851C48.9609 10.0466 48.1693 9.18657 47.561 8.67396C46.1415 7.47828 45.7102 7.46602 43.527 8.55954ZM133.753 11.5008C130.303 12.6801 128.613 13.8752 126.392 16.7059C125.269 18.1367 124.645 19.4017 123.745 22.0666L123.015 24.2288L123.011 27.9225C123.009 30.6767 123.075 31.8223 123.272 32.427C123.417 32.873 123.668 33.6789 123.83 34.218C125.104 38.4543 128.496 42.3049 132.256 43.7817C135.216 44.9438 135.71 45.0397 138.737 45.0397C141.964 45.0397 143.315 44.7226 146.081 43.3157C147.408 42.6408 148.035 42.1622 149.536 40.6802C151.737 38.5079 152.656 36.9787 153.686 33.7784L154.382 31.6162L154.382 27.9225L154.382 24.2288L153.678 22.0666C152.638 18.8708 151.743 17.3735 149.579 15.2026C148.035 13.6551 147.509 13.2547 146.052 12.5197C143.333 11.1487 142.41 10.9377 138.838 10.8713L135.763 10.814L133.753 11.5008ZM66.7056 11.5405C66.5314 11.6415 66.389 11.8523 66.389 12.0093C66.389 12.4556 67.2351 13.7671 69.0227 16.0916C69.3154 16.4722 69.8397 17.1724 70.1879 17.6475C70.5361 18.1228 71.5207 19.4331 72.376 20.5594C73.2311 21.6857 74.3955 23.2558 74.9637 24.0486C75.5317 24.8414 76.2497 25.832 76.5594 26.2499L77.1222 27.0099L76.7756 27.7814C76.5847 28.2059 76.1801 28.8369 75.8762 29.1838C75.5723 29.5306 74.921 30.3679 74.429 31.0443C73.9369 31.7209 73.1886 32.7344 72.7656 33.2966C72.3429 33.8589 71.736 34.6838 71.4169 35.1297C71.0976 35.5757 70.5075 36.3578 70.1052 36.8679C69.7029 37.378 69.0889 38.2175 68.7407 38.7333C68.3925 39.2492 67.7785 40.0887 67.3762 40.5988C66.3066 41.955 65.3037 43.5069 65.3037 43.8062C65.3037 44.3375 65.7358 44.4991 67.1578 44.4991C68.9245 44.4991 69.4657 44.2395 70.2742 43.004C70.6113 42.4885 71.2794 41.5307 71.7586 40.8757C72.238 40.2206 72.8742 39.3416 73.1727 38.9222C73.4711 38.5027 73.9682 37.8631 74.2772 37.5006C74.5862 37.138 75.0466 36.5108 75.3002 36.1065C75.5536 35.7024 76.0741 34.9968 76.4567 34.5386C76.8394 34.0804 77.6001 33.098 78.1473 32.3557C78.6945 31.6131 79.2499 30.9609 79.3814 30.9061C79.753 30.7517 80.2826 31.1171 80.7479 31.8492C80.9814 32.2166 81.4483 32.8544 81.7855 33.2667C82.8743 34.598 84.7473 37.1245 86.559 39.7049C86.957 40.2717 87.6268 41.1373 88.0478 41.6283C88.4686 42.1193 88.9338 42.7537 89.0814 43.0382C89.2291 43.3226 89.6033 43.7676 89.913 44.0272C90.4204 44.4526 90.6227 44.4991 91.9637 44.4991C93.5042 44.4991 93.8853 44.3474 93.8853 43.7337C93.8853 43.3791 92.7869 41.5606 92.4457 41.3507C92.3341 41.2818 92.0304 40.8878 91.7712 40.475C91.5117 40.0622 90.9164 39.2784 90.4483 38.7333C89.9801 38.1883 89.3842 37.418 89.1243 37.0216C88.8642 36.6252 88.2878 35.8144 87.8432 35.2198C87.3987 34.6252 86.546 33.409 85.9485 32.5171C85.3508 31.6252 84.5232 30.4901 84.1091 29.9946C82.9092 28.5585 82.1341 27.214 82.2799 26.8214C82.3499 26.6331 82.7079 26.0944 83.0754 25.6241C84.797 23.4219 86.6587 20.9044 87.6804 19.3969C88.2972 18.4868 89.0706 17.4307 89.3989 17.0498C90.7281 15.5084 92.7958 12.4536 92.7981 12.0278C92.8009 11.5475 92.2139 11.3459 90.813 11.3459C89.1162 11.3459 88.667 11.6055 87.6199 13.1907C87.1447 13.9104 86.4246 14.9044 86.0198 15.3999C85.2256 16.3718 84.5064 17.396 83.694 18.7124C83.4116 19.1698 82.9563 19.7873 82.6822 20.0846C82.4082 20.3819 82.0066 20.9214 81.7897 21.2834C81.2774 22.1391 80.0507 23.2378 79.6079 23.2378C79.1473 23.2378 78.2065 22.4338 77.8432 21.7299C77.683 21.4196 77.1974 20.7718 76.7642 20.2904C76.3311 19.809 75.9766 19.321 75.9766 19.2061C75.9766 19.0909 75.6509 18.6044 75.253 18.1248C74.855 17.645 74.5294 17.1868 74.5294 17.1066C74.5294 17.0262 74.1374 16.5282 73.6582 16.0001C73.179 15.4718 72.3221 14.3311 71.7539 13.4651C71.1455 12.5378 70.5035 11.7787 70.192 11.6183C69.5833 11.3048 67.2034 11.2516 66.7056 11.5405ZM96.6646 11.5545C95.9224 11.9165 95.8752 12.35 95.8752 18.7918C95.8752 24.0823 95.8352 25.0164 95.5936 25.3598C95.3401 25.7203 95.1581 25.7603 93.7757 25.7603C91.9488 25.7603 91.479 25.9598 90.6726 27.0783C89.5628 28.6176 89.8274 28.8234 92.9163 28.8234C95.1869 28.8234 95.3267 28.8443 95.5936 29.2239C95.8369 29.5697 95.8752 30.5877 95.8752 36.7015C95.8752 43.5626 95.8864 43.7896 96.2408 44.1426C96.5977 44.4981 96.7872 44.5054 104.336 44.4579C112.838 44.4042 112.784 44.4101 115.848 43.1813C116.945 42.7413 117.568 42.3398 118.514 41.462C119.945 40.1339 120.3 39.6114 120.85 38.0261C121.182 37.0672 121.25 36.4827 121.246 34.6218L121.241 32.3751L120.476 30.8733C119.762 29.4706 119.35 28.9884 117.695 27.6209C117.434 27.4054 117.221 27.0953 117.221 26.9317C117.221 26.7683 117.659 26.1742 118.194 25.6119C119.31 24.4382 119.789 23.5798 120.192 22.0299C120.566 20.5902 120.552 19.7174 120.127 18.1913C119.165 14.7347 117.054 12.8869 112.789 11.7695C111.674 11.4772 110.661 11.4334 104.287 11.4019C99.5447 11.3783 96.9179 11.4309 96.6646 11.5545ZM152.894 11.5621C152.264 12.1896 152.707 12.8868 158.827 20.8861C159.275 21.4713 160.089 22.5664 160.636 23.3198C161.183 24.0731 161.936 25.1072 162.309 25.6178C162.731 26.194 162.988 26.7484 162.988 27.0793C162.988 27.6775 162.149 29.1571 161.313 30.0317C161.01 30.3495 160.591 30.8928 160.382 31.2389C159.946 31.9631 158.617 33.8577 157.509 35.3344C157.09 35.8932 156.503 36.6897 156.204 37.1051C155.906 37.5202 155.329 38.2822 154.923 38.798C154.516 39.3141 154.028 39.9768 153.837 40.2708C153.647 40.5649 153.065 41.373 152.544 42.0667C151.065 44.0395 151.243 44.4991 153.487 44.4991C155.103 44.4991 155.543 44.309 156.122 43.3615C156.308 43.0562 156.794 42.3968 157.202 41.8961C157.61 41.3953 158.391 40.3775 158.938 39.6343C159.484 38.891 160.3 37.7964 160.75 37.2018C161.2 36.6072 162.417 34.9701 163.454 33.5636C164.491 32.1573 165.422 30.956 165.522 30.8944C165.899 30.6625 166.363 31.0389 167.329 32.3578C167.877 33.105 168.576 34.0141 168.884 34.378C169.424 35.0157 170.437 36.4802 171.244 37.789C171.457 38.1342 171.945 38.7899 172.329 39.2458C172.713 39.7018 173.253 40.4015 173.528 40.8006C175.958 44.3238 176.183 44.4991 178.264 44.4991C179.746 44.4991 180.173 44.3427 180.173 43.8006C180.173 43.5276 179.106 41.8438 178.475 41.1218C178.281 40.8995 177.749 40.1984 177.293 39.564C176.838 38.9296 175.976 37.7744 175.379 36.9968C174.782 36.2193 173.805 34.8859 173.208 34.0337C172.17 32.5508 171.619 31.8162 169.903 29.6248C168.182 27.4281 168.093 27.0171 169.093 25.9151C169.466 25.5041 170.036 24.7944 170.36 24.338C171.405 22.8661 172.654 21.0688 173.118 20.3704C174.546 18.221 174.943 17.6639 175.121 17.5542C175.23 17.4871 175.612 16.9751 175.971 16.4161C176.329 15.8572 177.004 14.9945 177.47 14.499C178.762 13.1253 179.2 12.0705 178.69 11.5621C178.557 11.4296 177.907 11.3459 177.011 11.3459C175.359 11.3459 174.984 11.5186 174.304 12.5918C174.068 12.9626 173.563 13.6365 173.181 14.0893C172.798 14.5421 171.793 15.8958 170.947 17.0976C170.102 18.2996 169.099 19.6571 168.719 20.1145C168.339 20.5718 167.896 21.1578 167.735 21.4163C166.994 22.6043 166.206 23.418 165.795 23.418C165.355 23.418 164.306 22.2684 162.988 20.3417C162.64 19.8327 161.927 18.843 161.405 18.1425C160.883 17.4419 160.455 16.8048 160.455 16.7266C160.455 16.6486 160.008 16.085 159.46 15.4742C158.913 14.8632 158.465 14.2956 158.465 14.2129C158.465 13.9805 156.49 11.8241 156.051 11.5774C155.54 11.29 153.178 11.2785 152.894 11.5621ZM141.264 14.6918C144.437 15.5796 147.188 17.6707 148.544 20.2253C149.447 21.9275 150.136 23.9346 150.141 24.8818C150.143 25.241 150.266 25.8796 150.415 26.3009C150.565 26.7221 150.687 27.4519 150.687 27.9225C150.687 28.3931 150.565 29.1229 150.415 29.5441C150.266 29.9654 150.143 30.6039 150.141 30.9632C150.136 31.9104 149.447 33.9175 148.544 35.6196C147.173 38.2031 144.394 40.2984 141.179 41.1737C138.983 41.7716 135.465 41.289 133.165 40.0744C131.985 39.4512 130.191 37.7364 129.302 36.3811C126.17 31.6083 126.15 24.209 129.257 19.5468C130.246 18.0626 132.365 16.1392 133.708 15.5073C134.36 15.2005 135.048 14.9433 135.238 14.9358C135.427 14.9282 135.867 14.8127 136.215 14.6792C137.108 14.3369 140.022 14.3441 141.264 14.6918ZM112.357 15.4843C113.944 15.8617 114.672 16.3142 115.672 17.5444C116.186 18.1756 116.231 18.3464 116.287 19.8819C116.343 21.3823 116.302 21.6363 115.855 22.5771C115.1 24.1645 113.382 25.2198 111.551 25.2198C111.013 25.2198 110.227 25.3414 109.804 25.4901C108.714 25.8731 101 25.8852 100.477 25.5046C100.145 25.2625 100.126 24.9924 100.126 20.445C100.126 15.8976 100.145 15.6275 100.477 15.3853C100.761 15.179 101.798 15.1297 105.848 15.1297C110.214 15.1297 111.061 15.1758 112.357 15.4843ZM26.6723 22.6738C25.4266 23.4306 16.7409 31.9548 15.5571 33.5825C15.2089 34.0613 14.5888 34.8283 14.1791 35.2868C13.7691 35.7454 13.3058 36.364 13.1492 36.6613C12.9925 36.9586 12.6108 37.4856 12.301 37.8324C11.9911 38.1793 11.6103 38.7063 11.4546 39.0036C11.299 39.3009 10.871 39.9901 10.5034 40.5352C10.1033 41.1285 9.56602 42.3588 9.16461 43.6011C8.51248 45.6191 8.50126 45.6999 8.75433 46.5379C8.8976 47.0118 9.14142 47.5921 9.29627 47.8274C9.62097 48.3209 11.7903 49.9622 13.115 50.7165C13.6125 50.9997 14.3369 51.4599 14.725 51.7392C15.113 52.0184 15.5607 52.2469 15.7199 52.2471C15.8791 52.2471 16.5003 52.4786 17.1005 52.7613C17.7007 53.0442 18.8404 53.455 19.633 53.6745C20.4257 53.8939 21.5629 54.2098 22.1598 54.3765C23.0417 54.6226 24.0764 54.6794 27.6772 54.6794C31.2779 54.6794 32.3127 54.6226 33.1945 54.3765C33.7915 54.2098 34.9311 53.8932 35.7271 53.6729C36.523 53.4525 38.1104 52.8156 39.2545 52.2575C42.9995 50.4307 45.3229 48.8494 46.0715 47.6179C47.0805 45.9575 46.2064 42.6984 43.7335 38.9013C42.1114 36.4105 41.621 35.7405 40.9729 35.1297C40.6048 34.7829 39.9961 34.0532 39.6202 33.5081C38.2607 31.5366 31.3135 24.6937 28.9648 23.0126C27.9033 22.2529 27.4708 22.189 26.6723 22.6738ZM109.385 29.0281C109.665 29.1407 110.668 29.2944 111.613 29.3695C113.632 29.5303 114.719 29.9548 115.917 31.0503C118.085 33.0326 118.157 36.3712 116.078 38.5272C115.311 39.3225 114.569 39.7238 112.608 40.4024C111.625 40.7427 111.02 40.7845 106.186 40.8469C101.69 40.9051 100.793 40.8739 100.488 40.6501C100.143 40.397 100.124 40.1431 100.073 35.2796C100.043 32.4721 100.064 29.9982 100.118 29.782C100.353 28.8506 100.487 28.8234 104.831 28.8234C107.431 28.8234 109.058 28.8966 109.385 29.0281Z" fill="rgb(255,255,255)" fill-rule="evenodd" />
</svg>
