<svg viewBox="0 0 50 50" xmlns="http://www.w3.org/2000/svg" xmlns:xlink="http://www.w3.org/1999/xlink" width="50.000000" height="50.000000" fill="none">
	<rect id="Business Suitcase 2 Streamline Cyber Line - Free" width="50.000000" height="50.000000" x="0.000000" y="0.000000" fill="rgb(255,255,255)" fill-opacity="0" />
	<path id="Vector" d="M23.9577 36.4585L19.791 32.2918L19.791 23.9585L28.1243 23.9585L28.1243 32.2918L23.9577 36.4585Z" fill-rule="nonzero" stroke="rgb(255,116,63)" stroke-linecap="round" stroke-linejoin="round" stroke-width="1.5" />
	<path id="Vector" d="M1.04102 22.9165L19.791 28.4311" fill-rule="nonzero" stroke="rgb(255,116,63)" stroke-linecap="round" stroke-linejoin="round" stroke-width="1.5" />
	<path id="Vector" d="M14.584 13.5415L16.6673 7.2915L31.2507 7.2915L33.334 13.5415L14.584 13.5415Z" fill-rule="nonzero" stroke="rgb(255,116,63)" stroke-linecap="round" stroke-linejoin="round" stroke-width="1.5" />
	<path id="Vector" d="M2.08333 0L0 0" stroke="rgb(255,116,63)" stroke-linecap="round" stroke-linejoin="round" stroke-width="1.5" transform="matrix(0,1,-1,0,23.959,28.125)" />
	<path id="Vector" d="M1.04102 22.9165L1.04102 13.5415L46.8743 13.5415L46.8743 22.9165L28.1243 28.4311" fill-rule="nonzero" stroke="rgb(255,116,63)" stroke-linecap="round" stroke-linejoin="round" stroke-width="1.5" />
	<path id="Vector" d="M3.125 23.5293L3.125 46.8751L44.7917 46.8751L44.7917 23.5293" fill-rule="nonzero" stroke="rgb(255,116,63)" stroke-linecap="round" stroke-linejoin="round" stroke-width="1.5" />
</svg>
