<svg viewBox="0 0 50 50" xmlns="http://www.w3.org/2000/svg" xmlns:xlink="http://www.w3.org/1999/xlink" width="50.000000" height="50.000000" fill="none">
	<rect id="Presentation Streamline Iconoir Regular" width="50.000000" height="50.000000" x="0.000000" y="0.000000" fill="rgb(255,255,255)" fill-opacity="0" />
	<path id="Vector" d="M46.3652 37.0721C46.3652 37.7803 45.7914 38.3541 45.0834 38.3541L4.91465 38.3541C4.20664 38.3541 3.63281 37.7803 3.63281 37.0721L3.63281 9.72324C3.63281 9.01523 4.20664 8.44141 4.91465 8.44141L45.0834 8.44141C45.7914 8.44141 46.3652 9.01523 46.3652 9.72324L46.3652 37.0721Z" fill-rule="nonzero" stroke="rgb(255,116,63)" stroke-linecap="round" stroke-linejoin="round" stroke-width="1.5" />
	<path id="Vector" d="M17.5215 45.8321L24.9996 38.354L32.4777 45.8321" fill-rule="nonzero" stroke="rgb(255,116,63)" stroke-linecap="round" stroke-linejoin="round" stroke-width="1.5" />
	<path id="Vector" d="M0 0L4.27324 0" stroke="rgb(255,116,63)" stroke-linecap="round" stroke-linejoin="round" stroke-width="1.5" transform="matrix(0,1,-1,0,25,4.16797)" />
	<path id="Vector" d="M0 0L4.27324 0" stroke="rgb(255,116,63)" stroke-linecap="round" stroke-linejoin="round" stroke-width="1.5" transform="matrix(0,1,-1,0,18.59,25.5342)" />
	<path id="Vector" d="M0 0L8.54648 0" stroke="rgb(255,116,63)" stroke-linecap="round" stroke-linejoin="round" stroke-width="1.5" transform="matrix(0,1,-1,0,25,21.261)" />
	<path id="Vector" d="M0 0L12.8197 0" stroke="rgb(255,116,63)" stroke-linecap="round" stroke-linejoin="round" stroke-width="1.5" transform="matrix(0,1,-1,0,31.41,16.9878)" />
</svg>
