<svg viewBox="0 0 50 50" xmlns="http://www.w3.org/2000/svg" xmlns:xlink="http://www.w3.org/1999/xlink" width="50.000000" height="50.000000" fill="none">
	<rect id="Search Window Streamline Iconoir Regular" width="50.000000" height="50.000000" x="0.000000" y="0.000000" fill="rgb(255,255,255)" fill-opacity="0" />
	<path id="Vector" d="M27.1357 43.1615L7.90606 43.1615C5.5459 43.1615 3.63281 41.2484 3.63281 38.8883L3.63281 8.97559C3.63281 6.61543 5.5459 4.70215 7.90606 4.70215L42.092 4.70215C44.4522 4.70215 46.3652 6.61543 46.3652 8.97559L46.3652 28.2051" fill-rule="nonzero" stroke="rgb(255,116,63)" stroke-linecap="round" stroke-width="1.5" />
	<path id="Vector" d="M3.63281 13.2485L46.3652 13.2485" stroke="rgb(255,116,63)" stroke-linecap="round" stroke-linejoin="round" stroke-width="1.5" />
	<path id="Vector" d="M10.043 8.99648L10.0645 8.97266" fill-rule="nonzero" stroke="rgb(255,116,63)" stroke-linecap="round" stroke-linejoin="round" stroke-width="1.5" />
	<path id="Vector" d="M16.4531 8.99648L16.4744 8.97266" fill-rule="nonzero" stroke="rgb(255,116,63)" stroke-linecap="round" stroke-linejoin="round" stroke-width="1.5" />
	<path id="Vector" d="M22.8633 8.99673L22.8848 8.9729" fill-rule="nonzero" stroke="rgb(255,116,63)" stroke-linecap="round" stroke-linejoin="round" stroke-width="1.5" />
	<path id="Vector" d="M44.2297 36.7513C44.2297 33.2113 41.36 30.3416 37.8197 30.3416C34.2795 30.3416 31.41 33.2113 31.41 36.7513C31.41 40.2914 34.2795 43.1613 37.8197 43.1613C39.593 43.1613 41.1979 42.4412 42.3582 41.2779C43.5147 40.1183 44.2297 38.5183 44.2297 36.7513ZM42.3582 41.2779L46.3662 45.298" fill-rule="nonzero" stroke="rgb(255,116,63)" stroke-linecap="round" stroke-linejoin="round" stroke-width="1.5" />
</svg>
